/** Converted by fconv.py from pixcyr2.ttf (size 7) */

#define pixcyr2_width 8
#define pixcyr2_height 1568
static const uint8_t pixcyr2_bits[] = {
0x00,0x00,0x00,0x00,0x00,0x00,0x00,0x5c,0x00,0x00,0x00,0x00,0x00,0x00,0x04,
0x00,0x04,0x00,0x00,0x00,0x00,0x28,0x7c,0x28,0x7c,0x28,0x00,0x00,0x00,0x00,
0x00,0x00,0x00,0x00,0x00,0x04,0x70,0x1c,0x40,0x00,0x00,0x00,0x6c,0x54,0x7c,
0x10,0x00,0x00,0x00,0x0c,0x00,0x00,0x00,0x00,0x00,0x00,0x38,0x44,0x00,0x00,
0x00,0x00,0x00,0x44,0x38,0x00,0x00,0x00,0x00,0x00,0x28,0x10,0x28,0x00,0x00,
0x00,0x00,0x10,0x38,0x10,0x00,0x00,0x00,0x00,0x40,0x60,0x00,0x00,0x00,0x00,
0x00,0x10,0x10,0x10,0x00,0x00,0x00,0x00,0x40,0x00,0x00,0x00,0x00,0x00,0x00,
0x70,0x1c,0x00,0x00,0x00,0x00,0x00,0x7c,0x44,0x7c,0x00,0x00,0x00,0x00,0x04,
0x7c,0x00,0x00,0x00,0x00,0x00,0x74,0x54,0x5c,0x00,0x00,0x00,0x00,0x44,0x54,
0x7c,0x00,0x00,0x00,0x00,0x1c,0x10,0x7c,0x00,0x00,0x00,0x00,0x5c,0x54,0x74,
0x00,0x00,0x00,0x00,0x7c,0x50,0x70,0x00,0x00,0x00,0x00,0x04,0x04,0x7c,0x00,
0x00,0x00,0x00,0x7c,0x54,0x7c,0x00,0x00,0x00,0x00,0x1c,0x14,0x7c,0x00,0x00,
0x00,0x00,0x28,0x00,0x00,0x00,0x00,0x00,0x00,0xc8,0x00,0x00,0x00,0x00,0x00,
0x00,0x10,0x28,0x44,0x00,0x00,0x00,0x00,0x28,0x28,0x28,0x00,0x00,0x00,0x00,
0x44,0x28,0x10,0x00,0x00,0x00,0x00,0x04,0x54,0x1c,0x00,0x00,0x00,0x00,0x78,
0x04,0x74,0x54,0x3c,0x00,0x00,0x7c,0x14,0x7c,0x00,0x00,0x00,0x00,0x7c,0x54,
0x5c,0x70,0x00,0x00,0x00,0x7c,0x44,0x44,0x00,0x00,0x00,0x00,0x7c,0x44,0x38,
0x00,0x00,0x00,0x00,0x7c,0x54,0x44,0x00,0x00,0x00,0x00,0x7c,0x14,0x14,0x00,
0x00,0x00,0x00,0x7c,0x44,0x54,0x74,0x00,0x00,0x00,0x7c,0x10,0x7c,0x00,0x00,
0x00,0x00,0x7c,0x00,0x00,0x00,0x00,0x00,0x00,0x64,0x44,0x7c,0x00,0x00,0x00,
0x00,0x7c,0x10,0x6c,0x00,0x00,0x00,0x00,0x7c,0x40,0x40,0x00,0x00,0x00,0x00,
0x7c,0x08,0x10,0x08,0x7c,0x00,0x00,0x7c,0x08,0x10,0x7c,0x00,0x00,0x00,0x7c,
0x44,0x7c,0x00,0x00,0x00,0x00,0x7c,0x14,0x1c,0x00,0x00,0x00,0x00,0x7c,0x44,
0x7c,0x40,0x00,0x00,0x00,0x7c,0x14,0x6c,0x00,0x00,0x00,0x00,0x5c,0x54,0x74,
0x00,0x00,0x00,0x00,0x04,0x7c,0x04,0x00,0x00,0x00,0x00,0x7c,0x40,0x7c,0x00,
0x00,0x00,0x00,0x3c,0x60,0x3c,0x00,0x00,0x00,0x00,0x7c,0x20,0x10,0x20,0x7c,
0x00,0x00,0x6c,0x10,0x6c,0x00,0x00,0x00,0x00,0x1c,0x70,0x1c,0x00,0x00,0x00,
0x00,0x64,0x54,0x4c,0x00,0x00,0x00,0x00,0x7c,0x44,0x00,0x00,0x00,0x00,0x00,
0x1c,0x70,0x00,0x00,0x00,0x00,0x00,0x44,0x7c,0x00,0x00,0x00,0x00,0x00,0x08,
0x04,0x08,0x00,0x00,0x00,0x00,0x40,0x40,0x40,0x00,0x00,0x00,0x00,0x0c,0x00,
0x00,0x00,0x00,0x00,0x00,0x7c,0x14,0x7c,0x00,0x00,0x00,0x00,0x7c,0x54,0x5c,
0x70,0x00,0x00,0x00,0x7c,0x44,0x44,0x00,0x00,0x00,0x00,0x7c,0x44,0x38,0x00,
0x00,0x00,0x00,0x7c,0x54,0x44,0x00,0x00,0x00,0x00,0x7c,0x14,0x14,0x00,0x00,
0x00,0x00,0x7c,0x44,0x54,0x74,0x00,0x00,0x00,0x7c,0x10,0x7c,0x00,0x00,0x00,
0x00,0x7c,0x00,0x00,0x00,0x00,0x00,0x00,0x64,0x44,0x7c,0x00,0x00,0x00,0x00,
0x7c,0x10,0x6c,0x00,0x00,0x00,0x00,0x7c,0x40,0x40,0x00,0x00,0x00,0x00,0x7c,
0x08,0x10,0x08,0x7c,0x00,0x00,0x7c,0x08,0x10,0x7c,0x00,0x00,0x00,0x7c,0x44,
0x7c,0x00,0x00,0x00,0x00,0x7c,0x14,0x1c,0x00,0x00,0x00,0x00,0x7c,0x44,0x7c,
0x40,0x00,0x00,0x00,0x7c,0x14,0x6c,0x00,0x00,0x00,0x00,0x5c,0x54,0x74,0x00,
0x00,0x00,0x00,0x04,0x7c,0x04,0x00,0x00,0x00,0x00,0x7c,0x40,0x7c,0x00,0x00,
0x00,0x00,0x3c,0x60,0x3c,0x00,0x00,0x00,0x00,0x7c,0x20,0x10,0x20,0x7c,0x00,
0x00,0x6c,0x10,0x6c,0x00,0x00,0x00,0x00,0x1c,0x70,0x1c,0x00,0x00,0x00,0x00,
0x64,0x54,0x4c,0x00,0x00,0x00,0x00,0x10,0x6c,0x44,0x00,0x00,0x00,0x00,0xfc,
0x00,0x00,0x00,0x00,0x00,0x00,0x44,0x6c,0x10,0x00,0x00,0x00,0x00,0x10,0x08,
0x10,0x08,0x00,0x00,0x00,0x00,0x00,0x00,0x00,0x00,0x00,0x00,0x00,0x00,0x00,
0x00,0x00,0x00,0x00,0x00,0x00,0x00,0x00,0x00,0x00,0x00,0x00,0x00,0x00,0x00,
0x00,0x00,0x00,0x00,0x00,0x00,0x00,0x00,0x00,0x00,0x00,0x00,0x00,0x00,0x00,
0x00,0x00,0x00,0x00,0x00,0x00,0x00,0x00,0x00,0x00,0x00,0x00,0x00,0x00,0x00,
0x00,0x00,0x00,0x00,0x00,0x00,0x00,0x00,0x00,0x00,0x00,0x00,0x00,0x00,0x00,
0x00,0x00,0x00,0x00,0x00,0x00,0x00,0x00,0x00,0x00,0x00,0x00,0x00,0x00,0x00,
0x00,0x00,0x00,0x00,0x00,0x00,0x00,0x00,0x00,0x00,0x00,0x00,0x00,0x00,0x00,
0x00,0x00,0x00,0x00,0x00,0x00,0x00,0x00,0x00,0x00,0x00,0x00,0x00,0x00,0x00,
0x00,0x00,0x00,0x00,0x00,0x00,0x00,0x00,0x00,0x00,0x00,0x00,0x00,0x00,0x00,
0x00,0x00,0x00,0x00,0x00,0x00,0x00,0x00,0x00,0x00,0x00,0x00,0x00,0x00,0x00,
0x00,0x00,0x00,0x00,0x00,0x00,0x00,0x00,0x00,0x00,0x00,0x00,0x00,0x00,0x00,
0x00,0x00,0x00,0x00,0x00,0x00,0x00,0x00,0x00,0x00,0x00,0x00,0x00,0x00,0x00,
0x00,0x00,0x00,0x00,0x00,0x00,0x00,0x00,0x00,0x00,0x00,0x00,0x00,0x00,0x00,
0x00,0x00,0x00,0x00,0x00,0x00,0x00,0x00,0x00,0x00,0x00,0x00,0x00,0x00,0x00,
0x00,0x00,0x00,0x00,0x00,0x00,0x00,0x00,0x00,0x00,0x00,0x00,0x00,0x00,0x00,
0x00,0x00,0x00,0x00,0x00,0x00,0x00,0x00,0x00,0x00,0x00,0x00,0x00,0x00,0x00,
0x00,0x00,0x00,0x00,0x00,0x00,0x00,0x00,0x00,0x00,0x00,0x00,0x00,0x00,0x00,
0x00,0x00,0x64,0x44,0x7c,0x00,0x00,0x00,0x00,0x00,0x00,0x00,0x00,0x00,0x00,
0x00,0x78,0x08,0x0c,0x00,0x00,0x00,0x00,0xfc,0x00,0x00,0x00,0x00,0x00,0x00,
0x00,0x00,0x00,0x00,0x00,0x00,0x00,0x7d,0x54,0x45,0x00,0x00,0x00,0x00,0x00,
0x00,0x00,0x00,0x00,0x00,0x00,0x38,0x54,0x44,0x00,0x00,0x00,0x00,0x10,0x38,
0x54,0x10,0x10,0x00,0x00,0x10,0x10,0x30,0x00,0x00,0x00,0x00,0x10,0x10,0x00,
0x00,0x00,0x00,0x00,0x00,0x00,0x00,0x00,0x00,0x00,0x00,0x04,0x78,0x04,0x00,
0x00,0x00,0x00,0x00,0x00,0x00,0x00,0x00,0x00,0x00,0x00,0x00,0x00,0x00,0x00,
0x00,0x00,0x7c,0x00,0x00,0x00,0x00,0x00,0x00,0x7c,0x00,0x00,0x00,0x00,0x00,
0x00,0x78,0x08,0x0c,0x00,0x00,0x00,0x00,0x00,0x00,0x00,0x00,0x00,0x00,0x00,
0x00,0x00,0x00,0x00,0x00,0x00,0x00,0x10,0x00,0x00,0x00,0x00,0x00,0x00,0x7d,
0x54,0x45,0x00,0x00,0x00,0x00,0x00,0x00,0x00,0x00,0x00,0x00,0x00,0x38,0x54,
0x44,0x00,0x00,0x00,0x00,0x10,0x10,0x54,0x38,0x10,0x00,0x00,0x64,0x44,0x7c,
0x00,0x00,0x00,0x00,0x5c,0x54,0x74,0x00,0x00,0x00,0x00,0x5c,0x54,0x74,0x00,
0x00,0x00,0x00,0x04,0x78,0x04,0x00,0x00,0x00,0x00,0x7c,0x14,0x7c,0x00,0x00,
0x00,0x00,0x7c,0x54,0x54,0x70,0x00,0x00,0x00,0x7c,0x54,0x5c,0x70,0x00,0x00,
0x00,0x7c,0x04,0x04,0x00,0x00,0x00,0x00,0x40,0x78,0x44,0x7c,0x40,0x00,0x00,
0x7c,0x54,0x44,0x00,0x00,0x00,0x00,0x6c,0x10,0x7c,0x10,0x6c,0x00,0x00,0x54,
0x54,0x5c,0x70,0x00,0x00,0x00,0x7c,0x20,0x10,0x7c,0x00,0x00,0x00,0x7c,0x22,
0x10,0x7c,0x00,0x00,0x00,0x7c,0x10,0x6c,0x00,0x00,0x00,0x00,0x78,0x04,0x7c,
0x00,0x00,0x00,0x00,0x7c,0x08,0x10,0x08,0x7c,0x00,0x00,0x7c,0x10,0x7c,0x00,
0x00,0x00,0x00,0x7c,0x44,0x7c,0x00,0x00,0x00,0x00,0x7c,0x04,0x7c,0x00,0x00,
0x00,0x00,0x7c,0x14,0x1c,0x00,0x00,0x00,0x00,0x7c,0x44,0x44,0x00,0x00,0x00,
0x00,0x04,0x7c,0x04,0x00,0x00,0x00,0x00,0x5c,0x50,0x3c,0x00,0x00,0x00,0x00,
0x38,0x28,0x7c,0x28,0x38,0x00,0x00,0x6c,0x10,0x6c,0x00,0x00,0x00,0x00,0x7c,
0x40,0x7c,0x40,0x00,0x00,0x00,0x1c,0x10,0x7c,0x00,0x00,0x00,0x00,0x7c,0x40,
0x7c,0x40,0x7c,0x00,0x00,0x7c,0x40,0x7c,0x40,0x7c,0x40,0x00,0x04,0x7c,0x50,
0x70,0x00,0x00,0x00,0x7c,0x50,0x70,0x00,0x7c,0x00,0x00,0x7c,0x50,0x70,0x00,
0x00,0x00,0x00,0x44,0x54,0x38,0x00,0x00,0x00,0x00,0x7c,0x10,0x7c,0x44,0x7c,
0x00,0x00,0x6c,0x14,0x7c,0x00,0x00,0x00,0x00,0x7c,0x14,0x7c,0x00,0x00,0x00,
0x00,0x7c,0x54,0x54,0x70,0x00,0x00,0x00,0x7c,0x54,0x5c,0x70,0x00,0x00,0x00,
0x7c,0x04,0x04,0x00,0x00,0x00,0x00,0x40,0x78,0x44,0x7c,0x40,0x00,0x00,0x7c,
0x54,0x44,0x00,0x00,0x00,0x00,0x6c,0x10,0x7c,0x10,0x6c,0x00,0x00,0x54,0x54,
0x5c,0x70,0x00,0x00,0x00,0x7c,0x20,0x10,0x7c,0x00,0x00,0x00,0x7c,0x22,0x10,
0x7c,0x00,0x00,0x00,0x7c,0x10,0x6c,0x00,0x00,0x00,0x00,0x78,0x04,0x7c,0x00,
0x00,0x00,0x00,0x7c,0x08,0x10,0x08,0x7c,0x00,0x00,0x7c,0x10,0x7c,0x00,0x00,
0x00,0x00,0x7c,0x44,0x7c,0x00,0x00,0x00,0x00,0x7c,0x04,0x7c,0x00,0x00,0x00,
0x00,0x7c,0x14,0x1c,0x00,0x00,0x00,0x00,0x7c,0x44,0x44,0x00,0x00,0x00,0x00,
0x04,0x7c,0x04,0x00,0x00,0x00,0x00,0x5c,0x50,0x3c,0x00,0x00,0x00,0x00,0x38,
0x28,0x7c,0x28,0x38,0x00,0x00,0x6c,0x10,0x6c,0x00,0x00,0x00,0x00,0x7c,0x40,
0x7c,0x40,0x00,0x00,0x00,0x1c,0x10,0x7c,0x00,0x00,0x00,0x00,0x7c,0x40,0x7c,
0x40,0x7c,0x00,0x00,0x7c,0x40,0x7c,0x40,0x7c,0x40,0x00,0x04,0x7c,0x50,0x70,
0x00,0x00,0x00,0x7c,0x50,0x70,0x00,0x7c,0x00,0x00,0x7c,0x50,0x70,0x00,0x00,
0x00,0x00,0x44,0x54,0x38,0x00,0x00,0x00,0x00,0x7c,0x10,0x7c,0x44,0x7c,0x00,
0x00,0x6c,0x14,0x7c,0x00,0x00,0x00,0x00
};

#define pixcyr2_font_w 7
#define pixcyr2_font_h 8
#define pixcyr2_font_asciioffset 32
#define pixcyr2_font_baseline 6
#define pixcyr2_font_meanline 4
    
static const uint8_t pixcyr2_font_spaces[] = {
4, 2, 4, 6, 4, 5, 5, 2, 3, 3, 4, 4, 3, 4, 2, 3, 4, 3, 4, 4, 4, 4, 4, 4, 4, 4, 2, 2, 4, 4, 4, 4, 6, 4, 5, 4, 4, 4, 4, 5, 4, 2, 4, 4, 4, 6, 5, 4, 4, 5, 4, 4, 4, 4, 4, 6, 4, 4, 4, 3, 3, 3, 4, 4, 2, 4, 5, 4, 4, 4, 4, 5, 4, 2, 4, 4, 4, 6, 5, 4, 4, 5, 4, 4, 4, 4, 4, 6, 4, 4, 4, 4, 2, 4, 5, 4, 4, 4, 4, 4, 4, 4, 4, 4, 4, 4, 4, 4, 4, 4, 4, 4, 4, 4, 4, 4, 4, 4, 4, 4, 4, 4, 4, 4, 4, 4, 4, 4, 4, 4, 4, 4, 4, 4, 2, 4, 4, 4, 4, 6, 4, 3, 4, 4, 4, 4, 2, 2, 4, 4, 4, 2, 4, 4, 4, 6, 4, 4, 4, 4, 4, 5, 5, 4, 6, 4, 6, 5, 5, 5, 4, 4, 6, 4, 4, 4, 4, 4, 4, 4, 6, 4, 5, 4, 6, 7, 5, 6, 4, 4, 6, 4, 4, 5, 5, 4, 6, 4, 6, 5, 5, 5, 4, 4, 6, 4, 4, 4, 4, 4, 4, 4, 6, 4, 5, 4, 6, 7, 5, 6, 4, 4, 6, 4, };