/** Converted by fconv.py from amiga4ever_pro2.ttf (size 8) */

#define amiga4ever_pro2_width 8
#define amiga4ever_pro2_height 855
static const uint8_t amiga4ever_pro2_bits[] = {
0x00,0x00,0x00,0x00,0x00,0x00,0x00,0x00,0x00,0x00,0x00,0x4f,0x4f,0x00,0x00,
0x00,0x00,0x00,0x03,0x03,0x00,0x03,0x03,0x00,0x00,0x00,0x00,0x14,0x7f,0x7f,
0x14,0x7f,0x7f,0x14,0x00,0x00,0x24,0x2e,0x6b,0x6b,0x3a,0x12,0x00,0x00,0x00,
0x4c,0x6a,0x36,0x18,0x6c,0x56,0x32,0x00,0x00,0x30,0x7e,0x4f,0x59,0x77,0x7a,
0x68,0x40,0x00,0x00,0x04,0x07,0x03,0x00,0x00,0x00,0x00,0x00,0x00,0x00,0x1c,
0x3e,0x63,0x41,0x00,0x00,0x00,0x00,0x00,0x41,0x63,0x3e,0x1c,0x00,0x00,0x00,
0x08,0x2a,0x3e,0x1c,0x1c,0x3e,0x2a,0x08,0x00,0x08,0x08,0x3e,0x3e,0x08,0x08,
0x00,0x00,0x00,0x00,0x00,0x80,0xe0,0x60,0x00,0x00,0x00,0x00,0x08,0x08,0x08,
0x08,0x08,0x08,0x00,0x00,0x00,0x00,0x00,0x00,0x60,0x60,0x00,0x00,0x00,0x00,
0x40,0x60,0x30,0x18,0x0c,0x06,0x03,0x01,0x00,0x3e,0x7f,0x59,0x4d,0x7f,0x3e,
0x00,0x00,0x00,0x04,0x06,0x7f,0x7f,0x00,0x00,0x00,0x00,0x00,0x42,0x63,0x71,
0x59,0x4f,0x46,0x00,0x00,0x00,0x22,0x63,0x49,0x49,0x7f,0x36,0x00,0x00,0x00,
0x18,0x1c,0x16,0x13,0x7f,0x7f,0x10,0x00,0x00,0x27,0x67,0x45,0x45,0x7d,0x39,
0x00,0x00,0x00,0x3c,0x7e,0x4b,0x49,0x79,0x30,0x00,0x00,0x00,0x01,0x01,0x71,
0x79,0x0f,0x07,0x00,0x00,0x00,0x36,0x7f,0x49,0x49,0x7f,0x36,0x00,0x00,0x00,
0x06,0x4f,0x49,0x69,0x3f,0x1e,0x00,0x00,0x00,0x00,0x00,0x66,0x66,0x00,0x00,
0x00,0x00,0x00,0x00,0x00,0x80,0xe6,0x66,0x00,0x00,0x00,0x00,0x00,0x08,0x08,
0x14,0x14,0x22,0x22,0x00,0x00,0x00,0x14,0x14,0x14,0x14,0x14,0x14,0x00,0x00,
0x00,0x22,0x22,0x14,0x14,0x08,0x08,0x00,0x00,0x02,0x03,0x51,0x59,0x0f,0x06,
0x00,0x00,0x00,0x3e,0x7f,0x41,0x5d,0x55,0x1f,0x1e,0x00,0x00,0x7e,0x7f,0x09,
0x09,0x7f,0x7e,0x00,0x00,0x00,0x7f,0x7f,0x49,0x49,0x7f,0x36,0x00,0x00,0x00,
0x1c,0x3e,0x63,0x41,0x41,0x41,0x00,0x00,0x00,0x7f,0x7f,0x41,0x63,0x3e,0x1c,
0x00,0x00,0x00,0x7f,0x7f,0x49,0x49,0x41,0x41,0x00,0x00,0x00,0x7f,0x7f,0x09,
0x09,0x01,0x01,0x00,0x00,0x00,0x3e,0x7f,0x41,0x49,0x7b,0x7a,0x00,0x00,0x00,
0x7f,0x7f,0x08,0x08,0x7f,0x7f,0x00,0x00,0x00,0x41,0x7f,0x7f,0x41,0x00,0x00,
0x00,0x00,0x00,0x20,0x60,0x40,0x40,0x7f,0x3f,0x00,0x00,0x00,0x7f,0x7f,0x08,
0x1c,0x36,0x63,0x41,0x00,0x00,0x7f,0x7f,0x40,0x40,0x40,0x40,0x00,0x00,0x00,
0x7f,0x7f,0x06,0x0c,0x06,0x7f,0x7f,0x00,0x00,0x7f,0x7f,0x06,0x0c,0x18,0x7f,
0x7f,0x00,0x00,0x3e,0x7f,0x41,0x41,0x7f,0x3e,0x00,0x00,0x00,0x7f,0x7f,0x09,
0x09,0x0f,0x06,0x00,0x00,0x00,0x3e,0x7f,0x41,0x61,0x7f,0x7e,0x40,0x00,0x00,
0x7f,0x7f,0x09,0x19,0x7f,0x66,0x00,0x00,0x00,0x26,0x6f,0x4d,0x59,0x7b,0x32,
0x00,0x00,0x00,0x01,0x01,0x7f,0x7f,0x01,0x01,0x00,0x00,0x00,0x3f,0x7f,0x40,
0x40,0x7f,0x3f,0x00,0x00,0x00,0x0f,0x3f,0x70,0x70,0x3f,0x0f,0x00,0x00,0x00,
0x7f,0x7f,0x30,0x18,0x30,0x7f,0x7f,0x00,0x00,0x41,0x63,0x36,0x1c,0x1c,0x36,
0x63,0x41,0x00,0x01,0x03,0x06,0x7c,0x7c,0x06,0x03,0x01,0x00,0x61,0x71,0x59,
0x4d,0x47,0x43,0x41,0x00,0x00,0x00,0x7f,0x7f,0x41,0x41,0x00,0x00,0x00,0x00,
0x01,0x03,0x06,0x0c,0x18,0x30,0x60,0x40,0x00,0x00,0x41,0x41,0x7f,0x7f,0x00,
0x00,0x00,0x00,0x08,0x0c,0x06,0x03,0x06,0x0c,0x08,0x00,0x00,0x80,0x80,0x80,
0x80,0x80,0x80,0x80,0x00,0x00,0x00,0x03,0x07,0x04,0x00,0x00,0x00,0x00,0x00,
0x20,0x74,0x54,0x54,0x7c,0x78,0x00,0x00,0x00,0x7f,0x7f,0x44,0x44,0x7c,0x38,
0x00,0x00,0x00,0x38,0x7c,0x44,0x44,0x44,0x00,0x00,0x00,0x00,0x38,0x7c,0x44,
0x44,0x7f,0x7f,0x00,0x00,0x00,0x38,0x7c,0x54,0x54,0x5c,0x18,0x00,0x00,0x00,
0x04,0x7e,0x7f,0x05,0x05,0x00,0x00,0x00,0x00,0x18,0xbc,0xa4,0xa4,0xfc,0x7c,
0x00,0x00,0x00,0x7f,0x7f,0x04,0x04,0x7c,0x78,0x00,0x00,0x00,0x3d,0x7d,0x40,
0x00,0x00,0x00,0x00,0x00,0x00,0x80,0x80,0x80,0xfd,0x7d,0x00,0x00,0x00,0x00,
0x7f,0x7f,0x10,0x38,0x6c,0x44,0x00,0x00,0x00,0x3f,0x7f,0x40,0x00,0x00,0x00,
0x00,0x00,0x00,0x7c,0x7c,0x0c,0x18,0x0c,0x7c,0x78,0x00,0x00,0x7c,0x7c,0x04,
0x04,0x7c,0x78,0x00,0x00,0x00,0x38,0x7c,0x44,0x44,0x7c,0x38,0x00,0x00,0x00,
0xfc,0xfc,0x24,0x24,0x3c,0x18,0x00,0x00,0x00,0x18,0x3c,0x24,0x24,0xfc,0xfc,
0x00,0x00,0x00,0x7c,0x7c,0x04,0x04,0x0c,0x08,0x00,0x00,0x00,0x48,0x5c,0x54,
0x54,0x74,0x20,0x00,0x00,0x00,0x04,0x3f,0x7f,0x44,0x44,0x00,0x00,0x00,0x00,
0x3c,0x7c,0x40,0x40,0x7c,0x7c,0x00,0x00,0x00,0x1c,0x3c,0x60,0x60,0x3c,0x1c,
0x00,0x00,0x00,0x3c,0x7c,0x60,0x30,0x60,0x7c,0x3c,0x00,0x00,0x44,0x6c,0x38,
0x10,0x38,0x6c,0x44,0x00,0x00,0x1c,0xbc,0xe0,0x60,0x3c,0x1c,0x00,0x00,0x00,
0x44,0x64,0x74,0x5c,0x4c,0x44,0x00,0x00,0x00,0x00,0x08,0x08,0x3e,0x77,0x41,
0x41,0x00,0x00,0x00,0x7f,0x7f,0x00,0x00,0x00,0x00,0x00,0x00,0x00,0x41,0x41,
0x77,0x3e,0x08,0x08,0x00,0x00,0x02,0x01,0x01,0x01,0x02,0x02,0x02,0x01,0x00
};

#define amiga4ever_pro2_font_w 9
#define amiga4ever_pro2_font_h 8
#define amiga4ever_pro2_font_asciioffset 32
#define amiga4ever_pro2_font_baseline 6
#define amiga4ever_pro2_font_meanline 4

static const uint8_t amiga4ever_pro2_font_spaces[] = {
8, 6, 6, 8, 7, 8, 9, 5, 7, 7, 9, 7, 8, 7, 8, 9, 7, 5, 7, 7, 8, 7, 7, 7, 7, 7, 6, 7, 8, 8, 8, 7, 8, 7, 7, 7, 7, 7, 7, 7, 7, 5, 7, 8, 7, 8, 8, 7, 7, 8, 7, 7, 7, 7, 7, 8, 9, 9, 8, 6, 9, 6, 8, 8, 5, 7, 7, 6, 7, 7, 6, 7, 7, 4, 6, 7, 4, 8, 7, 7, 7, 7, 7, 7, 6, 7, 7, 8, 8, 7, 7, 8, 4, 8, 8, };