#define arrows_width 22
#define arrows_height 91
static uint8_t arrows_bits[] = {
   0x00, 0x00, 0x00, 0x00, 0x0E, 0x00, 0x00, 0x36, 0x00, 0x00, 0xC3,
   0x00, 0x80, 0x01, 0x03, 0xC0, 0x80, 0x03, 0xC0, 0x40, 0x00, 0x60,
   0x40, 0x00, 0xB0, 0x41, 0x00, 0xF8, 0x41, 0x00, 0xC0, 0x41, 0x00,
   0xC0, 0x41, 0x00, 0xC0, 0x41, 0x00, 0xC0, 0x41, 0x00, 0xC0, 0x41,
   0x00, 0xC0, 0x41, 0x00, 0xC0, 0x41, 0x00, 0xC0, 0x39, 0x00, 0xC0,
   0x07, 0x00, 0xC0, 0x01, 0x00, 0x00, 0x00, 0x00, 0x00, 0x00, 0x00,
   0x00, 0x00, 0x00, 0x00, 0x00, 0x00, 0x00, 0x7F, 0x00, 0x00, 0x7F,
   0x00, 0x00, 0x41, 0x00, 0x00, 0x41, 0x00, 0x00, 0x41, 0x00, 0x00,
   0x41, 0x00, 0x00, 0x41, 0x00, 0x00, 0x41, 0x00, 0x00, 0x41, 0x00,
   0x00, 0x41, 0x00, 0x00, 0x41, 0x00, 0xF0, 0xC1, 0x07, 0xE0, 0xC1,
   0x03, 0x40, 0x00, 0x01, 0x80, 0x80, 0x00, 0x00, 0x41, 0x00, 0x00,
   0x22, 0x00, 0x00, 0x14, 0x00, 0x00, 0x08, 0x00, 0x00, 0x00, 0x00,
   0x00, 0x00, 0x00, 0x00, 0x00, 0x00, 0x00, 0x00, 0x00, 0xFE, 0xFF,
   0x1F, 0x04, 0x00, 0x08, 0x0C, 0x00, 0x0C, 0x08, 0x00, 0x04, 0x10,
   0x00, 0x02, 0x30, 0x00, 0x03, 0x20, 0x00, 0x01, 0x60, 0x80, 0x01,
   0x40, 0x80, 0x00, 0x80, 0x40, 0x00, 0x80, 0x61, 0x00, 0x00, 0x21,
   0x00, 0x00, 0x33, 0x00, 0x00, 0x12, 0x00, 0x00, 0x0C, 0x00, 0x00,
   0x0C, 0x00, 0x00, 0x00, 0x00, 0x00, 0x00, 0x00, 0x00, 0x00, 0x00,
   0x00, 0x00, 0x00, 0x00, 0x00, 0x00, 0x08, 0x00, 0x00, 0x38, 0x00,
   0x00, 0x68, 0x00, 0x00, 0x88, 0x01, 0x00, 0x08, 0x07, 0x00, 0x08,
   0x0C, 0x00, 0x08, 0x30, 0x00, 0x08, 0xE0, 0x00, 0x08, 0x80, 0x01,
   0x08, 0x00, 0x06, 0x08, 0x00, 0x06, 0x08, 0x80, 0x01, 0x08, 0xE0,
   0x00, 0x08, 0x30, 0x00, 0x08, 0x0C, 0x00, 0x08, 0x07, 0x00, 0x88,
   0x01, 0x00, 0x68, 0x00, 0x00, 0x38, 0x00, 0x00, 0x08, 0x00, 0x00,
   0x00, 0x00, 0x00, 0x00, 0x00, 0x00, 0x00, 0x00, 0x00
   };
