#define cap3_width 97
#define cap3_height 112
static uint8_t cap3_bits[] = {
   0x00, 0xF7, 0x03, 0x04, 0x00, 0x00, 0x00, 0x00, 0x00, 0x00, 0x00,
   0x00, 0x00, 0x00, 0xFF, 0x03, 0x00, 0x00, 0x00, 0x02, 0x20, 0x00,
   0x00, 0x00, 0x00, 0x00, 0x00, 0xFF, 0x03, 0x00, 0x00, 0x00, 0x00,
   0x60, 0x00, 0x00, 0x00, 0x00, 0x00, 0x80, 0x1F, 0x03, 0x00, 0x04,
   0x00, 0x00, 0x00, 0x00, 0x00, 0x02, 0x30, 0x00, 0x80, 0xFF, 0x03,
   0x00, 0x04, 0x00, 0x00, 0x30, 0x00, 0x00, 0x00, 0x00, 0x00, 0x80,
   0xFF, 0x07, 0x00, 0x00, 0x00, 0x00, 0x00, 0x00, 0x00, 0x00, 0x00,
   0x00, 0x80, 0xFD, 0x06, 0x00, 0x00, 0x00, 0x00, 0x00, 0x00, 0x00,
   0x00, 0x00, 0x00, 0x80, 0xFD, 0x07, 0x00, 0x00, 0x00, 0x00, 0x00,
   0x00, 0x00, 0x00, 0x00, 0x00, 0xC0, 0xFC, 0x06, 0x00, 0x00, 0x00,
   0x00, 0x00, 0x00, 0x00, 0x00, 0x00, 0x00, 0xC0, 0xFC, 0x07, 0x00,
   0x00, 0x00, 0x80, 0x00, 0x80, 0x00, 0x00, 0x01, 0x00, 0xC0, 0xEC,
   0x07, 0x60, 0x00, 0x08, 0x00, 0x00, 0x00, 0x00, 0x00, 0x01, 0x00,
   0xC0, 0xFC, 0x07, 0x00, 0x00, 0x04, 0x00, 0x00, 0x00, 0x00, 0x00,
   0x00, 0x00, 0x60, 0x0C, 0x0E, 0x00, 0x00, 0x00, 0x00, 0x80, 0x00,
   0x00, 0x00, 0x00, 0x01, 0x60, 0xFC, 0x0F, 0x00, 0x00, 0x00, 0x00,
   0x80, 0x00, 0x00, 0x00, 0x00, 0x00, 0x60, 0xF8, 0x0F, 0x00, 0x00,
   0x00, 0x00, 0x00, 0x00, 0x00, 0x00, 0x00, 0x00, 0x60, 0x18, 0x0C,
   0x00, 0x04, 0x00, 0x00, 0x00, 0x00, 0x00, 0x00, 0x00, 0x00, 0x60,
   0xF8, 0x8F, 0x00, 0x04, 0x00, 0x00, 0x00, 0x00, 0x02, 0x00, 0x00,
   0x00, 0x60, 0xF8, 0x0F, 0x00, 0x00, 0x00, 0x00, 0x00, 0x02, 0x00,
   0x00, 0x00, 0x00, 0x20, 0xF8, 0x19, 0x00, 0x00, 0x00, 0x00, 0x00,
   0x00, 0x00, 0x00, 0x00, 0x00, 0x30, 0xF8, 0x1F, 0x00, 0x00, 0x00,
   0x01, 0x00, 0x00, 0x00, 0x00, 0x60, 0x00, 0x30, 0xF0, 0x1F, 0x00,
   0x00, 0x00, 0x01, 0x20, 0x00, 0x00, 0x00, 0x00, 0x00, 0x30, 0xB0,
   0x1F, 0x00, 0x00, 0x00, 0x00, 0x20, 0x00, 0x00, 0x00, 0x00, 0x00,
   0x38, 0xF0, 0x1F, 0x00, 0x04, 0x00, 0x00, 0x00, 0x0C, 0x00, 0x00,
   0x00, 0x00, 0x18, 0x30, 0x30, 0x00, 0x00, 0x00, 0x00, 0x00, 0x00,
   0x00, 0x00, 0x00, 0x00, 0x18, 0xF0, 0x3F, 0x00, 0x00, 0x00, 0x00,
   0x00, 0x00, 0x00, 0x00, 0x00, 0x00, 0x18, 0x70, 0x30, 0x00, 0x00,
   0x06, 0x00, 0x01, 0x00, 0x00, 0x80, 0x00, 0x00, 0x0C, 0xE0, 0x3F,
   0x00, 0x00, 0x00, 0x80, 0x11, 0x00, 0x00, 0x81, 0x01, 0x00, 0x0C,
   0xE0, 0x7F, 0x00, 0x00, 0x00, 0xA0, 0x39, 0x01, 0x00, 0x00, 0x00,
   0x00, 0x0C, 0xE0, 0x7F, 0x00, 0x00, 0x00, 0xF0, 0xFF, 0x0B, 0x00,
   0x00, 0x00, 0x00, 0x0C, 0xE0, 0x60, 0x00, 0x00, 0x00, 0xF2, 0xDF,
   0xDB, 0x01, 0x00, 0x00, 0x00, 0x0F, 0xE0, 0x7F, 0x00, 0x00, 0x80,
   0xFF, 0xFF, 0xF3, 0x03, 0x00, 0x00, 0x00, 0x0F, 0xF0, 0x7F, 0x20,
   0x00, 0xC0, 0xFF, 0xFF, 0x3F, 0x06, 0x00, 0x00, 0x00, 0x0F, 0xF0,
   0x77, 0x20, 0x00, 0xC0, 0xFF, 0xFF, 0x1F, 0x06, 0x00, 0x00, 0x00,
   0x0F, 0xF0, 0xFF, 0x00, 0x00, 0xC0, 0xFF, 0xFF, 0x1F, 0x04, 0x01,
   0x00, 0x00, 0x0F, 0x98, 0xC1, 0x00, 0x00, 0xE4, 0xFF, 0xFF, 0x3F,
   0x06, 0x01, 0x00, 0x00, 0x0F, 0x98, 0xFF, 0x00, 0x00, 0xE8, 0xFF,
   0xFF, 0x3F, 0x07, 0x00, 0x00, 0x00, 0x1F, 0x98, 0xFF, 0x00, 0x00,
   0xF6, 0xFF, 0xFF, 0xBF, 0x03, 0x00, 0x00, 0x00, 0x0F, 0x98, 0xFF,
   0x00, 0x00, 0xF5, 0xFF, 0xFF, 0xFB, 0x03, 0x00, 0x00, 0x00, 0x0F,
   0x88, 0xC3, 0x00, 0x10, 0xFF, 0xFF, 0xFF, 0xFF, 0x03, 0x00, 0x00,
   0x00, 0x0F, 0x0C, 0xFF, 0x01, 0x00, 0xFA, 0xFF, 0xFF, 0xFF, 0x0D,
   0x00, 0x06, 0x00, 0x0F, 0x0C, 0x83, 0x01, 0x00, 0xFE, 0xFF, 0xFF,
   0xFF, 0x0F, 0x00, 0x00, 0x00, 0x07, 0x0C, 0xFF, 0x01, 0x00, 0xFD,
   0xFF, 0xFF, 0xFF, 0x03, 0x00, 0x80, 0x00, 0x07, 0x0C, 0xFF, 0x01,
   0x00, 0xFE, 0xFF, 0xFF, 0xFF, 0x0B, 0x00, 0x80, 0x00, 0x07, 0x0C,
   0xFF, 0xC1, 0x80, 0xF6, 0xFF, 0x7F, 0xFF, 0x0F, 0x00, 0x00, 0x00,
   0x03, 0x0C, 0x03, 0x81, 0x80, 0xFC, 0xFF, 0xFF, 0xBF, 0x0F, 0x00,
   0x00, 0x00, 0x03, 0x04, 0xFE, 0x03, 0x00, 0xFB, 0xFF, 0xFF, 0xFF,
   0x13, 0x10, 0x00, 0x00, 0x03, 0x06, 0xD6, 0x03, 0x00, 0xF7, 0xFF,
   0xFF, 0xFF, 0x07, 0x18, 0x00, 0x00, 0x03, 0x06, 0xFE, 0x03, 0x80,
   0xFF, 0xFF, 0xFF, 0xFF, 0x1D, 0x00, 0x00, 0x00, 0x03, 0x06, 0x16,
   0x03, 0x00, 0xFF, 0xFF, 0xFF, 0xFF, 0x0E, 0x00, 0x00, 0x00, 0x01,
   0x06, 0xFC, 0x03, 0x00, 0xFD, 0xFF, 0xFF, 0xFF, 0x0F, 0x00, 0x00,
   0x00, 0x01, 0x06, 0x0C, 0x07, 0x00, 0xFF, 0xFF, 0xFF, 0xFF, 0x4F,
   0x00, 0x00, 0x00, 0x01, 0x03, 0xFC, 0x07, 0x00, 0xFE, 0xFF, 0xFF,
   0xFF, 0x35, 0x00, 0x00, 0x00, 0x01, 0x03, 0x0C, 0x06, 0x00, 0xFC,
   0xFF, 0xFF, 0xFF, 0x1F, 0x00, 0x00, 0x00, 0x01, 0x03, 0xF8, 0x07,
   0x00, 0xFF, 0xFF, 0xFF, 0xFD, 0x8F, 0x00, 0x00, 0x00, 0x00, 0x03,
   0xF8, 0x07, 0x18, 0xFE, 0xFF, 0xFF, 0xFD, 0x97, 0xC1, 0x20, 0x00,
   0x00, 0x03, 0xFC, 0x0F, 0x00, 0xFA, 0xFF, 0xFF, 0xFF, 0x3F, 0x00,
   0x00, 0x00, 0x80, 0x01, 0xFC, 0x0F, 0x00, 0xFE, 0xFF, 0xFF, 0xFF,
   0x1F, 0x00, 0x00, 0x00, 0x80, 0x01, 0x1C, 0x0C, 0x00, 0xFF, 0xFF,
   0xFF, 0xFF, 0x1F, 0x00, 0x00, 0x00, 0x80, 0x01, 0xDC, 0x0F, 0x00,
   0xFE, 0xFF, 0xFF, 0xFF, 0x2F, 0x00, 0x00, 0x00, 0xC0, 0x00, 0xFC,
   0x0F, 0x00, 0xF8, 0xFF, 0xFF, 0xFF, 0x0F, 0x00, 0x00, 0x00, 0xC0,
   0x00, 0xFE, 0x0F, 0x00, 0xFE, 0xFF, 0xFF, 0xFF, 0x47, 0x00, 0x00,
   0x00, 0xC0, 0x00, 0x36, 0x0C, 0x01, 0xFC, 0xFF, 0xFF, 0xFF, 0x37,
   0x00, 0x00, 0x00, 0xC0, 0x00, 0xF6, 0x9F, 0x01, 0xF8, 0xFF, 0x7F,
   0xFF, 0x0F, 0x00, 0x00, 0x00, 0x60, 0x00, 0x36, 0x1D, 0x80, 0xF4,
   0xFF, 0xFF, 0xFF, 0x1B, 0x00, 0x00, 0x00, 0x60, 0x00, 0xF6, 0x1F,
   0xC0, 0xFC, 0xFB, 0xFF, 0xFF, 0x33, 0x00, 0x00, 0x00, 0x60, 0x00,
   0x33, 0x18, 0x00, 0xF8, 0xFF, 0xFF, 0xFF, 0x61, 0x00, 0x00, 0x00,
   0x60, 0x00, 0xE3, 0x1F, 0x00, 0xF0, 0xFF, 0xFF, 0xDE, 0xC1, 0x00,
   0x00, 0x00, 0x20, 0x00, 0xE3, 0x1B, 0x00, 0xF8, 0xFF, 0x3F, 0xFC,
   0xE9, 0x00, 0x00, 0x00, 0x30, 0x00, 0xE3, 0x3F, 0x00, 0xE0, 0xFF,
   0x67, 0xFC, 0xF3, 0x01, 0x00, 0x00, 0x30, 0x00, 0xE3, 0x37, 0x00,
   0x80, 0xFF, 0x7F, 0xBC, 0xE7, 0x01, 0x00, 0x00, 0x30, 0x80, 0xE1,
   0x3F, 0x00, 0xF8, 0xFE, 0x7F, 0x0C, 0xFE, 0x01, 0x00, 0x00, 0x18,
   0x80, 0xE1, 0x30, 0x00, 0xF2, 0xFF, 0x7F, 0x0C, 0xFE, 0x00, 0x80,
   0x01, 0x18, 0x80, 0xC1, 0x7F, 0x00, 0x80, 0x7F, 0xFE, 0x0F, 0x06,
   0x00, 0x00, 0x00, 0x18, 0x80, 0xC1, 0x72, 0x08, 0xC0, 0xFF, 0xFF,
   0x03, 0x0C, 0x00, 0x00, 0x00, 0x18, 0xC0, 0xC0, 0x7F, 0x00, 0x00,
   0xFE, 0x3F, 0x00, 0x6C, 0x00, 0x00, 0x00, 0x0C, 0xC0, 0xC0, 0x7F,
   0x00, 0x00, 0xFE, 0x3F, 0x1C, 0x0C, 0x00, 0x00, 0x00, 0x0C, 0xC0,
   0x80, 0x61, 0x00, 0x02, 0xFE, 0x1F, 0x1E, 0x0C, 0x80, 0x01, 0x00,
   0x0C, 0xC0, 0x80, 0x7F, 0x00, 0x40, 0x80, 0x1F, 0x1E, 0x18, 0x00,
   0x00, 0x00, 0x0C, 0x60, 0x80, 0xFF, 0x00, 0x00, 0xF0, 0x3F, 0x1E,
   0x1B, 0x00, 0x00, 0x00, 0x0C, 0x60, 0x80, 0xFB, 0x00, 0x00, 0xB0,
   0x6F, 0x00, 0x18, 0x00, 0x00, 0x00, 0x0E, 0x60, 0x80, 0xC1, 0x00,
   0x00, 0xC0, 0xE6, 0x81, 0x1F, 0x00, 0x00, 0x00, 0x06, 0x60, 0x00,
   0xFF, 0x00, 0x00, 0x40, 0xE6, 0x83, 0x1D, 0x00, 0x00, 0x00, 0x06,
   0x30, 0x00, 0xFF, 0x00, 0x00, 0x00, 0x7E, 0x07, 0x18, 0x00, 0x00,
   0x00, 0x06, 0x30, 0x00, 0xA3, 0x00, 0x00, 0x00, 0x38, 0x0E, 0x08,
   0x00, 0x00, 0x00, 0x06, 0x30, 0x00, 0xBF, 0x01, 0x00, 0x00, 0x00,
   0x38, 0x0F, 0x00, 0x00, 0x00, 0x03, 0x30, 0x00, 0xFF, 0x81, 0x60,
   0x00, 0x00, 0xE0, 0x0F, 0x40, 0x80, 0x00, 0x83, 0x1F, 0x80, 0xFF,
   0x01, 0x00, 0x00, 0x00, 0x80, 0x07, 0x00, 0x80, 0x00, 0x83, 0x1F,
   0x80, 0x83, 0x01, 0x00, 0x00, 0x00, 0x00, 0x00, 0x00, 0x00, 0x00,
   0x83, 0x1F, 0x80, 0xFF, 0x01, 0x00, 0x08, 0x00, 0x00, 0x00, 0x00,
   0x00, 0x00, 0x81, 0x1F, 0x80, 0xFF, 0x03, 0x00, 0x00, 0x00, 0x00,
   0x00, 0x00, 0x00, 0x00, 0x81, 0x1F, 0x80, 0xFF, 0x03, 0x00, 0x00,
   0x00, 0x00, 0x00, 0x00, 0x00, 0x00, 0xC1, 0x1F, 0x80, 0x3F, 0x03,
   0x80, 0x01, 0x10, 0x00, 0x00, 0x00, 0x00, 0x00, 0xC0, 0x3F, 0xC0,
   0xFE, 0x03, 0x00, 0x00, 0x00, 0x04, 0xC0, 0x00, 0x00, 0x00, 0xC0,
   0x3F, 0xC0, 0xFE, 0x03, 0x00, 0x00, 0x00, 0x00, 0xC0, 0x00, 0x00,
   0x00, 0xE0, 0x3F, 0xC0, 0xFC, 0x07, 0x00, 0x00, 0x00, 0x00, 0x00,
   0x00, 0x00, 0x00, 0xE0, 0x1F, 0xE0, 0xFC, 0x07, 0x00, 0x00, 0x00,
   0x00, 0x00, 0x00, 0x00, 0x00, 0xE0, 0x1F, 0x60, 0x3C, 0x06, 0x01,
   0x80, 0x00, 0x00, 0x00, 0x00, 0x04, 0x00, 0xE0, 0x1F, 0x60, 0xFC,
   0x07, 0x03, 0xC0, 0x00, 0x00, 0x00, 0x00, 0x04, 0x00, 0xE0, 0x1F,
   0x60, 0x7C, 0x07, 0x00, 0x00, 0x00, 0x00, 0x00, 0x00, 0x04, 0x00,
   0xF0, 0x1F, 0x30, 0xF8, 0x0F, 0x00, 0x00, 0x00, 0x80, 0x00, 0x00,
   0x00, 0x00, 0xF0, 0x0F, 0x30, 0x78, 0x0C, 0x00, 0x00, 0x00, 0x00,
   0x00, 0x00, 0x00, 0x00, 0xF0, 0x0F, 0x30, 0xF8, 0x0F, 0x00, 0x00,
   0x10, 0x00, 0x00, 0x00, 0x00, 0x00, 0xF0, 0x0F, 0x30, 0x78, 0x0C,
   0x08, 0x00, 0x00, 0x00, 0x00, 0x00, 0x00, 0x00, 0xF8, 0x0F, 0x18,
   0xF8, 0x0F, 0x0C, 0x00, 0x00, 0x00, 0x00, 0x00, 0x00, 0x00, 0xF8,
   0x0F, 0x18, 0xF8, 0x1F, 0x00, 0x00, 0x00, 0x00, 0x00, 0x00, 0x00,
   0x00, 0xF8, 0x07, 0x18, 0xF0, 0x1F, 0x00, 0x20, 0x80, 0x00, 0x00,
   0x00, 0x00, 0x00, 0xF8, 0x07, 0x18, 0xF0, 0x19, 0x00, 0x00, 0x80,
   0x80, 0x01, 0x03, 0x00, 0x00, 0xF8, 0x07, 0x0C, 0xF0, 0x1F, 0x00,
   0x80, 0x01, 0x00, 0x01, 0x00, 0x00, 0x00, 0xFC, 0x03, 0x0C, 0xF0,
   0x18, 0x00, 0x00, 0x00, 0x00, 0x00, 0x00, 0x00, 0x00, 0xFC, 0x03,
   0x0C, 0xE0, 0x1F, 0x00, 0x00, 0x00, 0x00, 0x00, 0x00, 0x00, 0x00,
   0xFC, 0x03, 0x04, 0xF0, 0x3F, 0x80, 0x01, 0x00, 0x00, 0x00, 0x00,
   0x00, 0x00, 0xFC, 0x03, 0x06, 0x70, 0x18, 0x80, 0x01, 0x00, 0x00,
   0x00, 0x00, 0x00, 0x00
   };
