#define disk_width 15
#define disk_height 14
static uint8_t disk_bits[] = {
   0xFF, 0x6F, 0xF9, 0x7F, 0x7F, 0x72, 0x60, 0x72, 0x6E, 0x72, 0x6E,
   0x72, 0x60, 0x72, 0x60, 0x72, 0x60, 0x72, 0x7F, 0x72, 0x7F, 0x72,
   0x7F, 0x72, 0xF9, 0x7F, 0xFF, 0x7F
   };
