/** Converted by fconv.py from f04b_11.ttf (size 8) */

#define f04b_11_width 7
#define f04b_11_height 855
static const uint8_t f04b_11_bits[] = {
0x00,0x00,0x00,0x00,0x00,0x00,0x00,0x00,0x00,0x17,0x17,0x00,0x00,0x00,0x00,
0x00,0x00,0x00,0x03,0x03,0x00,0x03,0x03,0x00,0x00,0x00,0x00,0x0a,0x1f,0x1f,
0x0a,0x1f,0x1f,0x0a,0x00,0x00,0x16,0x17,0x1d,0x1f,0x17,0x1d,0x0d,0x00,0x00,
0x13,0x1b,0x0c,0x06,0x1b,0x19,0x00,0x00,0x00,0x0a,0x1f,0x15,0x1f,0x1a,0x08,
0x00,0x00,0x00,0x03,0x03,0x00,0x00,0x00,0x00,0x00,0x00,0x00,0x0e,0x1f,0x11,
0x00,0x00,0x00,0x00,0x00,0x00,0x11,0x1f,0x0e,0x00,0x00,0x00,0x00,0x00,0x00,
0x05,0x07,0x02,0x07,0x05,0x00,0x00,0x00,0x00,0x04,0x04,0x1f,0x1f,0x04,0x04,
0x00,0x00,0x00,0x38,0x38,0x00,0x00,0x00,0x00,0x00,0x00,0x00,0x04,0x04,0x04,
0x04,0x04,0x04,0x00,0x00,0x00,0x18,0x18,0x00,0x00,0x00,0x00,0x00,0x00,0x00,
0x10,0x18,0x0c,0x06,0x03,0x01,0x00,0x00,0x00,0x0e,0x1f,0x11,0x11,0x1f,0x0e,
0x00,0x00,0x00,0x01,0x1f,0x1f,0x00,0x00,0x00,0x00,0x00,0x00,0x19,0x1d,0x15,
0x15,0x17,0x12,0x00,0x00,0x00,0x11,0x15,0x15,0x15,0x1f,0x0a,0x00,0x00,0x00,
0x0c,0x0e,0x0b,0x1f,0x1f,0x08,0x00,0x00,0x00,0x17,0x17,0x15,0x15,0x1d,0x09,
0x00,0x00,0x00,0x0e,0x1f,0x15,0x15,0x1d,0x08,0x00,0x00,0x00,0x01,0x11,0x19,
0x0d,0x07,0x03,0x00,0x00,0x00,0x0a,0x1f,0x15,0x15,0x1f,0x0a,0x00,0x00,0x00,
0x02,0x17,0x15,0x15,0x1f,0x0e,0x00,0x00,0x00,0x0a,0x0a,0x00,0x00,0x00,0x00,
0x00,0x00,0x00,0x1a,0x1a,0x00,0x00,0x00,0x00,0x00,0x00,0x00,0x04,0x0e,0x1b,
0x11,0x00,0x00,0x00,0x00,0x00,0x0a,0x0a,0x0a,0x0a,0x0a,0x0a,0x00,0x00,0x00,
0x11,0x1b,0x0e,0x04,0x00,0x00,0x00,0x00,0x00,0x01,0x15,0x15,0x07,0x07,0x02,
0x00,0x00,0x00,0x0e,0x1f,0x11,0x1d,0x15,0x1f,0x0e,0x00,0x00,0x1e,0x1f,0x05,
0x05,0x1f,0x1e,0x00,0x00,0x00,0x1f,0x1f,0x15,0x15,0x1f,0x0a,0x00,0x00,0x00,
0x0e,0x1f,0x11,0x11,0x1b,0x0a,0x00,0x00,0x00,0x1f,0x1f,0x11,0x11,0x1f,0x0e,
0x00,0x00,0x00,0x1f,0x1f,0x15,0x15,0x15,0x11,0x00,0x00,0x00,0x1f,0x1f,0x05,
0x05,0x05,0x01,0x00,0x00,0x00,0x0e,0x1f,0x11,0x15,0x1d,0x1d,0x00,0x00,0x00,
0x1f,0x1f,0x04,0x04,0x1f,0x1f,0x00,0x00,0x00,0x11,0x1f,0x1f,0x11,0x00,0x00,
0x00,0x00,0x00,0x08,0x18,0x11,0x11,0x1f,0x0f,0x00,0x00,0x00,0x1f,0x1f,0x04,
0x0e,0x1b,0x11,0x00,0x00,0x00,0x1f,0x1f,0x10,0x10,0x10,0x10,0x00,0x00,0x00,
0x1f,0x1f,0x06,0x0c,0x06,0x1f,0x1f,0x00,0x00,0x1f,0x1f,0x06,0x0c,0x1f,0x1f,
0x00,0x00,0x00,0x0e,0x1f,0x11,0x11,0x1f,0x0e,0x00,0x00,0x00,0x1f,0x1f,0x09,
0x09,0x0f,0x06,0x00,0x00,0x00,0x0e,0x1f,0x11,0x31,0x3f,0x0e,0x00,0x00,0x00,
0x1f,0x1f,0x09,0x19,0x1f,0x16,0x00,0x00,0x00,0x12,0x17,0x15,0x15,0x1d,0x09,
0x00,0x00,0x00,0x01,0x01,0x1f,0x1f,0x01,0x01,0x00,0x00,0x00,0x0f,0x1f,0x10,
0x10,0x1f,0x0f,0x00,0x00,0x00,0x03,0x0f,0x1c,0x1c,0x0f,0x03,0x00,0x00,0x00,
0x0f,0x1f,0x18,0x0f,0x0f,0x18,0x1f,0x0f,0x00,0x11,0x1b,0x0e,0x0e,0x1b,0x11,
0x00,0x00,0x00,0x03,0x07,0x1c,0x1c,0x07,0x03,0x00,0x00,0x00,0x11,0x19,0x1d,
0x17,0x13,0x11,0x00,0x00,0x00,0x1f,0x1f,0x11,0x00,0x00,0x00,0x00,0x00,0x00,
0x01,0x03,0x06,0x0c,0x18,0x10,0x00,0x00,0x00,0x11,0x1f,0x1f,0x00,0x00,0x00,
0x00,0x00,0x00,0x02,0x03,0x03,0x02,0x00,0x00,0x00,0x00,0x00,0x10,0x10,0x10,
0x10,0x10,0x10,0x00,0x00,0x00,0x00,0x00,0x00,0x00,0x00,0x00,0x00,0x00,0x00,
0x0c,0x1e,0x12,0x12,0x1e,0x1e,0x00,0x00,0x00,0x1f,0x1f,0x12,0x12,0x1e,0x0c,
0x00,0x00,0x00,0x0c,0x1e,0x12,0x12,0x12,0x12,0x00,0x00,0x00,0x0c,0x1e,0x12,
0x12,0x1f,0x1f,0x00,0x00,0x00,0x0c,0x1e,0x1a,0x16,0x16,0x04,0x00,0x00,0x00,
0x04,0x1e,0x1f,0x05,0x05,0x05,0x00,0x00,0x00,0x0c,0x1e,0x52,0x72,0x3e,0x1e,
0x00,0x00,0x00,0x1f,0x1f,0x02,0x02,0x1e,0x1c,0x00,0x00,0x00,0x1d,0x1d,0x00,
0x00,0x00,0x00,0x00,0x00,0x00,0x40,0x60,0x3d,0x1d,0x00,0x00,0x00,0x00,0x00,
0x1f,0x1f,0x04,0x0e,0x1a,0x12,0x00,0x00,0x00,0x1f,0x1f,0x00,0x00,0x00,0x00,
0x00,0x00,0x00,0x1e,0x1e,0x02,0x1e,0x1e,0x02,0x1e,0x1c,0x00,0x1e,0x1e,0x02,
0x02,0x1e,0x1c,0x00,0x00,0x00,0x0c,0x1e,0x12,0x12,0x1e,0x0c,0x00,0x00,0x00,
0x3e,0x3e,0x12,0x12,0x1e,0x0c,0x00,0x00,0x00,0x0c,0x1e,0x12,0x12,0x3e,0x3e,
0x00,0x00,0x00,0x1e,0x1e,0x04,0x06,0x02,0x02,0x00,0x00,0x00,0x14,0x16,0x1e,
0x1e,0x1a,0x0a,0x00,0x00,0x00,0x02,0x0f,0x1f,0x12,0x1a,0x0a,0x00,0x00,0x00,
0x0e,0x1e,0x10,0x10,0x1e,0x0e,0x00,0x00,0x00,0x06,0x0e,0x18,0x18,0x0e,0x06,
0x00,0x00,0x00,0x1e,0x1e,0x10,0x1e,0x1e,0x10,0x1e,0x0e,0x00,0x12,0x1e,0x0c,
0x0c,0x1e,0x12,0x00,0x00,0x00,0x0e,0x1e,0x10,0x50,0x7e,0x3e,0x00,0x00,0x00,
0x12,0x1a,0x1e,0x1e,0x16,0x12,0x00,0x00,0x00,0x04,0x1f,0x1b,0x11,0x00,0x00,
0x00,0x00,0x00,0x1f,0x1f,0x00,0x00,0x00,0x00,0x00,0x00,0x00,0x11,0x1b,0x1f,
0x04,0x00,0x00,0x00,0x00,0x00,0x02,0x03,0x03,0x01,0x00,0x00,0x00,0x00,0x00
};

#define f04b_11_font_w 9
#define f04b_11_font_h 7
#define f04b_11_font_asciioffset 32
#define f04b_11_font_baseline 4
#define f04b_11_font_meanline 3

static const uint8_t f04b_11_font_spaces[] = {
4, 3, 6, 8, 8, 7, 7, 3, 4, 4, 6, 7, 3, 7, 3, 7, 7, 4, 7, 7, 7, 7, 7, 7, 7, 7, 3, 3, 5, 7, 5, 7, 8, 7, 7, 7, 7, 7, 7, 7, 7, 5, 7, 7, 7, 8, 7, 7, 7, 7, 7, 7, 7, 7, 7, 9, 7, 7, 7, 4, 7, 4, 5, 7, 4, 7, 7, 7, 7, 7, 7, 7, 7, 3, 5, 7, 3, 9, 7, 7, 7, 7, 7, 7, 7, 7, 7, 9, 7, 7, 7, 5, 3, 5, 5, };