/** Converted by fconv.py from f04b_31.ttf (size 12) */

#define f04b_31_width 10
#define f04b_31_height 1520
static const uint8_t f04b_31_bits[] = {
0x00,0x00,0x00,0x00,0x00,0x00,0x00,0x00,0x00,0x00,0x00,0x00,0x00,0x00,0x00,
0x00,0x00,0x00,0x00,0x00,0x00,0x00,0x00,0x00,0x00,0x00,0x00,0x00,0x00,0x00,
0x00,0x00,0xdf,0x00,0xdf,0x00,0x00,0x00,0x00,0x00,0x00,0x00,0x00,0x00,0x00,
0x00,0x00,0x00,0x00,0x00,0x00,0x00,0x00,0x00,0x00,0x00,0x00,0x00,0x00,0x00,
0x00,0x00,0x00,0x00,0x0f,0x00,0x0f,0x00,0x00,0x00,0x0f,0x00,0x0f,0x00,0x00,
0x00,0x00,0x00,0x00,0x00,0x00,0x00,0x00,0x00,0x00,0x00,0x00,0x00,0x00,0x00,
0x00,0x00,0x00,0x00,0x00,0x00,0x66,0x00,0x66,0x00,0xff,0x00,0xff,0x00,0x66,
0x00,0x66,0x00,0x66,0x00,0x66,0x00,0x66,0x00,0x66,0x00,0xff,0x00,0xff,0x00,
0x66,0x00,0x66,0x00,0x00,0x00,0x00,0x00,0xdf,0x00,0xdf,0x00,0xdb,0x00,0xdb,
0x00,0xdb,0x00,0xdb,0x00,0xff,0x00,0xff,0x00,0xdb,0x00,0xdb,0x00,0xdb,0x00,
0xdb,0x00,0xfb,0x00,0xfb,0x00,0x00,0x00,0x00,0x00,0xfb,0x00,0xfb,0x00,0x1b,
0x00,0x1b,0x00,0x1b,0x00,0x1b,0x00,0xdb,0x00,0xdb,0x00,0xd8,0x00,0xd8,0x00,
0xd8,0x00,0xd8,0x00,0xdf,0x00,0xdf,0x00,0x00,0x00,0x00,0x00,0xff,0x00,0xff,
0x00,0xdb,0x00,0xdb,0x00,0xdb,0x00,0xdb,0x00,0xdb,0x00,0xdb,0x00,0xdb,0x00,
0xdb,0x00,0xfb,0x00,0xfb,0x00,0x18,0x00,0x18,0x00,0x00,0x00,0x00,0x00,0x0f,
0x00,0x0f,0x00,0x00,0x00,0x00,0x00,0x00,0x00,0x00,0x00,0x00,0x00,0x00,0x00,
0x00,0x00,0x00,0x00,0x00,0x00,0x00,0x00,0x00,0x00,0x00,0x00,0x00,0x00,0x00,
0x00,0x3c,0x00,0x3c,0x00,0xc3,0x00,0xc3,0x00,0x00,0x00,0x00,0x00,0x00,0x00,
0x00,0x00,0x00,0x00,0x00,0x00,0x00,0x00,0x00,0x00,0x00,0x00,0x00,0x00,0x00,
0x00,0x00,0x00,0xc3,0x00,0xc3,0x00,0x3c,0x00,0x3c,0x00,0x00,0x00,0x00,0x00,
0x00,0x00,0x00,0x00,0x00,0x00,0x00,0x00,0x00,0x00,0x00,0x00,0x00,0x00,0x00,
0x00,0x00,0x00,0x00,0x00,0x0c,0x00,0x0c,0x00,0x3f,0x00,0x3f,0x00,0x0c,0x00,
0x0c,0x00,0x00,0x00,0x00,0x00,0x00,0x00,0x00,0x00,0x00,0x00,0x00,0x00,0x00,
0x00,0x00,0x00,0x00,0x00,0x00,0x00,0x18,0x00,0x18,0x00,0x18,0x00,0x18,0x00,
0xff,0x00,0xff,0x00,0x18,0x00,0x18,0x00,0x18,0x00,0x18,0x00,0x00,0x00,0x00,
0x00,0x00,0x00,0x00,0x00,0x00,0x00,0x00,0x00,0xc0,0x01,0xc0,0x01,0x00,0x00,
0x00,0x00,0x00,0x00,0x00,0x00,0x00,0x00,0x00,0x00,0x00,0x00,0x00,0x00,0x00,
0x00,0x00,0x00,0x00,0x00,0x00,0x00,0x00,0x00,0x00,0x00,0x18,0x00,0x18,0x00,
0x18,0x00,0x18,0x00,0x18,0x00,0x18,0x00,0x18,0x00,0x18,0x00,0x18,0x00,0x18,
0x00,0x00,0x00,0x00,0x00,0x00,0x00,0x00,0x00,0x00,0x00,0x00,0x00,0xc0,0x00,
0xc0,0x00,0x00,0x00,0x00,0x00,0x00,0x00,0x00,0x00,0x00,0x00,0x00,0x00,0x00,
0x00,0x00,0x00,0x00,0x00,0x00,0x00,0x00,0x00,0x00,0x00,0x00,0x00,0x00,0x00,
0xc0,0x00,0xc0,0x00,0x30,0x00,0x30,0x00,0x0c,0x00,0x0c,0x00,0x03,0x00,0x03,
0x00,0x00,0x00,0x00,0x00,0x00,0x00,0x00,0x00,0x00,0x00,0x00,0x00,0x00,0x00,
0x00,0x00,0xff,0x00,0xff,0x00,0xc3,0x00,0xc3,0x00,0xc3,0x00,0xc3,0x00,0xc3,
0x00,0xc3,0x00,0xc3,0x00,0xc3,0x00,0xc3,0x00,0xc3,0x00,0xff,0x00,0xff,0x00,
0x00,0x00,0x00,0x00,0x03,0x00,0x03,0x00,0xff,0x00,0xff,0x00,0x00,0x00,0x00,
0x00,0x00,0x00,0x00,0x00,0x00,0x00,0x00,0x00,0x00,0x00,0x00,0x00,0x00,0x00,
0x00,0x00,0x00,0x00,0x00,0x00,0xfb,0x00,0xfb,0x00,0xdb,0x00,0xdb,0x00,0xdb,
0x00,0xdb,0x00,0xdb,0x00,0xdb,0x00,0xdb,0x00,0xdb,0x00,0xdb,0x00,0xdb,0x00,
0xdf,0x00,0xdf,0x00,0x00,0x00,0x00,0x00,0xdb,0x00,0xdb,0x00,0xdb,0x00,0xdb,
0x00,0xdb,0x00,0xdb,0x00,0xdb,0x00,0xdb,0x00,0xdb,0x00,0xdb,0x00,0xdb,0x00,
0xdb,0x00,0xff,0x00,0xff,0x00,0x00,0x00,0x00,0x00,0x3f,0x00,0x3f,0x00,0x30,
0x00,0x30,0x00,0x30,0x00,0x30,0x00,0x30,0x00,0x30,0x00,0x30,0x00,0x30,0x00,
0x30,0x00,0x30,0x00,0xff,0x00,0xff,0x00,0x00,0x00,0x00,0x00,0xdf,0x00,0xdf,
0x00,0xdb,0x00,0xdb,0x00,0xdb,0x00,0xdb,0x00,0xdb,0x00,0xdb,0x00,0xdb,0x00,
0xdb,0x00,0xdb,0x00,0xdb,0x00,0xfb,0x00,0xfb,0x00,0x00,0x00,0x00,0x00,0xff,
0x00,0xff,0x00,0xdb,0x00,0xdb,0x00,0xdb,0x00,0xdb,0x00,0xdb,0x00,0xdb,0x00,
0xdb,0x00,0xdb,0x00,0xdb,0x00,0xdb,0x00,0xfb,0x00,0xfb,0x00,0x00,0x00,0x00,
0x00,0x03,0x00,0x03,0x00,0x03,0x00,0x03,0x00,0x03,0x00,0x03,0x00,0x03,0x00,
0x03,0x00,0x03,0x00,0x03,0x00,0x03,0x00,0x03,0x00,0xff,0x00,0xff,0x00,0x00,
0x00,0x00,0x00,0xff,0x00,0xff,0x00,0xdb,0x00,0xdb,0x00,0xdb,0x00,0xdb,0x00,
0xdb,0x00,0xdb,0x00,0xdb,0x00,0xdb,0x00,0xdb,0x00,0xdb,0x00,0xff,0x00,0xff,
0x00,0x00,0x00,0x00,0x00,0xdf,0x00,0xdf,0x00,0xdb,0x00,0xdb,0x00,0xdb,0x00,
0xdb,0x00,0xdb,0x00,0xdb,0x00,0xdb,0x00,0xdb,0x00,0xdb,0x00,0xdb,0x00,0xff,
0x00,0xff,0x00,0x00,0x00,0x00,0x00,0x66,0x00,0x66,0x00,0x00,0x00,0x00,0x00,
0x00,0x00,0x00,0x00,0x00,0x00,0x00,0x00,0x00,0x00,0x00,0x00,0x00,0x00,0x00,
0x00,0x00,0x00,0x00,0x00,0x00,0x00,0x00,0x00,0xe6,0x00,0xe6,0x00,0x00,0x00,
0x00,0x00,0x00,0x00,0x00,0x00,0x00,0x00,0x00,0x00,0x00,0x00,0x00,0x00,0x00,
0x00,0x00,0x00,0x00,0x00,0x00,0x00,0x00,0x00,0x00,0x00,0x18,0x00,0x18,0x00,
0x66,0x00,0x66,0x00,0x00,0x00,0x00,0x00,0x00,0x00,0x00,0x00,0x00,0x00,0x00,
0x00,0x00,0x00,0x00,0x00,0x00,0x00,0x00,0x00,0x00,0x00,0x00,0x00,0x66,0x00,
0x66,0x00,0x66,0x00,0x66,0x00,0x66,0x00,0x66,0x00,0x66,0x00,0x66,0x00,0x66,
0x00,0x66,0x00,0x00,0x00,0x00,0x00,0x00,0x00,0x00,0x00,0x00,0x00,0x00,0x00,
0x66,0x00,0x66,0x00,0x18,0x00,0x18,0x00,0x00,0x00,0x00,0x00,0x00,0x00,0x00,
0x00,0x00,0x00,0x00,0x00,0x00,0x00,0x00,0x00,0x00,0x00,0x00,0x00,0x00,0x00,
0x00,0x00,0x03,0x00,0x03,0x00,0x03,0x00,0x03,0x00,0xdb,0x00,0xdb,0x00,0xdb,
0x00,0xdb,0x00,0x1b,0x00,0x1b,0x00,0x1b,0x00,0x1b,0x00,0x1f,0x00,0x1f,0x00,
0x00,0x00,0x00,0x00,0xff,0x00,0xff,0x00,0xc3,0x00,0xc3,0x00,0xfb,0x00,0xfb,
0x00,0xdb,0x00,0xdb,0x00,0xdb,0x00,0xdb,0x00,0xdb,0x00,0xdb,0x00,0xff,0x00,
0xff,0x00,0x00,0x00,0x00,0x00,0xff,0x00,0xff,0x00,0x1b,0x00,0x1b,0x00,0x1b,
0x00,0x1b,0x00,0x1b,0x00,0x1b,0x00,0x1b,0x00,0x1b,0x00,0x1b,0x00,0x1b,0x00,
0xff,0x00,0xff,0x00,0x00,0x00,0x00,0x00,0xff,0x00,0xff,0x00,0xdb,0x00,0xdb,
0x00,0xdb,0x00,0xdb,0x00,0xdb,0x00,0xdb,0x00,0xdb,0x00,0xdb,0x00,0xdf,0x00,
0xdf,0x00,0xf8,0x00,0xf8,0x00,0x00,0x00,0x00,0x00,0xff,0x00,0xff,0x00,0xc3,
0x00,0xc3,0x00,0xc3,0x00,0xc3,0x00,0xc3,0x00,0xc3,0x00,0xc3,0x00,0xc3,0x00,
0xc3,0x00,0xc3,0x00,0xc3,0x00,0xc3,0x00,0x00,0x00,0x00,0x00,0xff,0x00,0xff,
0x00,0xc3,0x00,0xc3,0x00,0xc3,0x00,0xc3,0x00,0xc3,0x00,0xc3,0x00,0xc3,0x00,
0xc3,0x00,0xc3,0x00,0xc3,0x00,0xfc,0x00,0xfc,0x00,0x00,0x00,0x00,0x00,0xff,
0x00,0xff,0x00,0xdb,0x00,0xdb,0x00,0xdb,0x00,0xdb,0x00,0xdb,0x00,0xdb,0x00,
0xdb,0x00,0xdb,0x00,0xdb,0x00,0xdb,0x00,0xdb,0x00,0xdb,0x00,0x00,0x00,0x00,
0x00,0xff,0x00,0xff,0x00,0x1b,0x00,0x1b,0x00,0x1b,0x00,0x1b,0x00,0x1b,0x00,
0x1b,0x00,0x1b,0x00,0x1b,0x00,0x1b,0x00,0x1b,0x00,0x1b,0x00,0x1b,0x00,0x00,
0x00,0x00,0x00,0xff,0x00,0xff,0x00,0xc3,0x00,0xdb,0x00,0xdb,0x00,0xdb,0x00,
0xdb,0x00,0xdb,0x00,0xdb,0x00,0xdb,0x00,0xdb,0x00,0xdb,0x00,0xfb,0x00,0xfb,
0x00,0x00,0x00,0x00,0x00,0xff,0x00,0xff,0x00,0x18,0x00,0x18,0x00,0x18,0x00,
0x18,0x00,0x18,0x00,0x18,0x00,0x18,0x00,0x18,0x00,0x18,0x00,0x18,0x00,0xff,
0x00,0xff,0x00,0x00,0x00,0x00,0x00,0xff,0x00,0xff,0x00,0x00,0x00,0x00,0x00,
0x00,0x00,0x00,0x00,0x00,0x00,0x00,0x00,0x00,0x00,0x00,0x00,0x00,0x00,0x00,
0x00,0x00,0x00,0x00,0x00,0x00,0x00,0x00,0x00,0xc0,0x00,0xc0,0x00,0xc0,0x00,
0xc0,0x00,0xc0,0x00,0xc0,0x00,0xc0,0x00,0xc3,0x00,0xc3,0x00,0xc3,0x00,0xc3,
0x00,0xc3,0x00,0xff,0x00,0xff,0x00,0x00,0x00,0x00,0x00,0xff,0x00,0xff,0x00,
0x18,0x00,0x18,0x00,0x18,0x00,0x18,0x00,0x18,0x00,0x18,0x00,0x18,0x00,0x18,
0x00,0x1f,0x00,0x1f,0x00,0xf8,0x00,0xf8,0x00,0x00,0x00,0x00,0x00,0xff,0x00,
0xff,0x00,0xc0,0x00,0xc0,0x00,0xc0,0x00,0xc0,0x00,0xc0,0x00,0xc0,0x00,0xc0,
0x00,0xc0,0x00,0xc0,0x00,0xc0,0x00,0xc0,0x00,0xc0,0x00,0x00,0x00,0x00,0x00,
0xff,0x00,0xff,0x00,0x03,0x00,0x03,0x00,0x03,0x00,0x03,0x00,0xff,0x00,0xff,
0x00,0x03,0x00,0x03,0x00,0x03,0x00,0x03,0x00,0xff,0x00,0xff,0x00,0x00,0x00,
0x00,0x00,0xff,0x00,0xff,0x00,0x03,0x00,0x03,0x00,0x03,0x00,0x03,0x00,0x03,
0x00,0x03,0x00,0x03,0x00,0x03,0x00,0x03,0x00,0x03,0x00,0xff,0x00,0xff,0x00,
0x00,0x00,0x00,0x00,0xff,0x00,0xff,0x00,0xc3,0x00,0xc3,0x00,0xc3,0x00,0xc3,
0x00,0xc3,0x00,0xc3,0x00,0xc3,0x00,0xc3,0x00,0xc3,0x00,0xc3,0x00,0xff,0x00,
0xff,0x00,0x00,0x00,0x00,0x00,0xff,0x00,0xff,0x00,0x33,0x00,0x33,0x00,0x33,
0x00,0x33,0x00,0x33,0x00,0x33,0x00,0x33,0x00,0x33,0x00,0x33,0x00,0x33,0x00,
0x3f,0x00,0x3f,0x00,0x00,0x00,0x00,0x00,0xff,0x00,0xff,0x00,0xc3,0x00,0xc3,
0x00,0xc3,0x00,0xc3,0x00,0xc3,0x03,0xc3,0x03,0xc3,0x00,0xc3,0x00,0xc3,0x00,
0xc3,0x00,0xff,0x00,0xff,0x00,0x00,0x00,0x00,0x00,0xff,0x00,0xff,0x00,0x33,
0x00,0x33,0x00,0x33,0x00,0x33,0x00,0x33,0x00,0x33,0x00,0x33,0x00,0x33,0x00,
0xf3,0x00,0xf3,0x00,0x3f,0x00,0x3f,0x00,0x00,0x00,0x00,0x00,0xdf,0x00,0xdf,
0x00,0xdb,0x00,0xdb,0x00,0xdb,0x00,0xdb,0x00,0xdb,0x00,0xdb,0x00,0xdb,0x00,
0xdb,0x00,0xdb,0x00,0xdb,0x00,0xfb,0x00,0xfb,0x00,0x00,0x00,0x00,0x00,0x03,
0x00,0x03,0x00,0x03,0x00,0x03,0x00,0x03,0x00,0x03,0x00,0xff,0x00,0xff,0x00,
0x03,0x00,0x03,0x00,0x03,0x00,0x03,0x00,0x03,0x00,0x03,0x00,0x00,0x00,0x00,
0x00,0xff,0x00,0xff,0x00,0xc0,0x00,0xc0,0x00,0xc0,0x00,0xc0,0x00,0xc0,0x00,
0xc0,0x00,0xc0,0x00,0xc0,0x00,0xc0,0x00,0xc0,0x00,0xff,0x00,0xff,0x00,0x00,
0x00,0x00,0x00,0xff,0x00,0xff,0x00,0xc0,0x00,0xc0,0x00,0xc0,0x00,0xc0,0x00,
0xc0,0x00,0xc0,0x00,0xc0,0x00,0xc0,0x00,0xc0,0x00,0xc0,0x00,0x3f,0x00,0x3f,
0x00,0x00,0x00,0x00,0x00,0xff,0x00,0xff,0x00,0xc0,0x00,0xc0,0x00,0xc0,0x00,
0xc0,0x00,0xff,0x00,0xff,0x00,0xc0,0x00,0xc0,0x00,0xc0,0x00,0xc0,0x00,0xff,
0x00,0xff,0x00,0x00,0x00,0x00,0x00,0xe7,0x00,0xe7,0x00,0x18,0x00,0x18,0x00,
0x18,0x00,0x18,0x00,0x18,0x00,0x18,0x00,0x18,0x00,0x18,0x00,0x18,0x00,0x18,
0x00,0xe7,0x00,0xe7,0x00,0x00,0x00,0x00,0x00,0xdf,0x00,0xdf,0x00,0xd8,0x00,
0xd8,0x00,0xd8,0x00,0xd8,0x00,0xd8,0x00,0xd8,0x00,0xd8,0x00,0xd8,0x00,0xd8,
0x00,0xd8,0x00,0xff,0x00,0xff,0x00,0x00,0x00,0x00,0x00,0xfb,0x00,0xfb,0x00,
0xdb,0x00,0xdb,0x00,0xdb,0x00,0xdb,0x00,0xdb,0x00,0xdb,0x00,0xdb,0x00,0xdb,
0x00,0xdb,0x00,0xdb,0x00,0xdf,0x00,0xdf,0x00,0x00,0x00,0x00,0x00,0xff,0x00,
0xff,0x00,0xc3,0x00,0xc3,0x00,0x00,0x00,0x00,0x00,0x00,0x00,0x00,0x00,0x00,
0x00,0x00,0x00,0x00,0x00,0x00,0x00,0x00,0x00,0x00,0x00,0x00,0x00,0x00,0x00,
0x03,0x00,0x03,0x00,0x0c,0x00,0x0c,0x00,0x30,0x00,0x30,0x00,0xc0,0x00,0xc0,
0x00,0x00,0x00,0x00,0x00,0x00,0x00,0x00,0x00,0x00,0x00,0x00,0x00,0x00,0x00,
0x00,0x00,0xc3,0x00,0xc3,0x00,0xff,0x00,0xff,0x00,0x00,0x00,0x00,0x00,0x00,
0x00,0x00,0x00,0x00,0x00,0x00,0x00,0x00,0x00,0x00,0x00,0x00,0x00,0x00,0x00,
0x00,0x00,0x00,0x00,0x03,0x00,0x03,0x00,0x03,0x00,0x03,0x00,0x03,0x00,0x03,
0x00,0x00,0x00,0x00,0x00,0x00,0x00,0x00,0x00,0x00,0x00,0x00,0x00,0x00,0x00,
0x00,0x00,0x00,0x00,0x00,0x00,0xc0,0x00,0xc0,0x00,0xc0,0x00,0xc0,0x00,0xc0,
0x00,0xc0,0x00,0xc0,0x00,0xc0,0x00,0xc0,0x00,0xc0,0x00,0x00,0x00,0x00,0x00,
0x00,0x00,0x00,0x00,0x00,0x00,0x00,0x00,0x03,0x00,0x03,0x00,0x03,0x00,0x03,
0x00,0x00,0x00,0x00,0x00,0x00,0x00,0x00,0x00,0x00,0x00,0x00,0x00,0x00,0x00,
0x00,0x00,0x00,0x00,0x00,0x00,0x00,0x00,0x00,0x00,0xf8,0x00,0xf8,0x00,0xdb,
0x00,0xdb,0x00,0xdb,0x00,0xdb,0x00,0xdb,0x00,0xdb,0x00,0xdb,0x00,0xdb,0x00,
0xdb,0x00,0xdb,0x00,0xff,0x00,0xff,0x00,0x00,0x00,0x00,0x00,0xff,0x00,0xff,
0x00,0xcc,0x00,0xcc,0x00,0xcc,0x00,0xcc,0x00,0xcc,0x00,0xcc,0x00,0xcc,0x00,
0xcc,0x00,0xcc,0x00,0xcc,0x00,0xfc,0x00,0xfc,0x00,0x00,0x00,0x00,0x00,0xfc,
0x00,0xfc,0x00,0xcc,0x00,0xcc,0x00,0xcc,0x00,0xcc,0x00,0xcc,0x00,0xcc,0x00,
0xcc,0x00,0xcc,0x00,0xcc,0x00,0xcc,0x00,0xcc,0x00,0xcc,0x00,0x00,0x00,0x00,
0x00,0xfc,0x00,0xfc,0x00,0xcc,0x00,0xcc,0x00,0xcc,0x00,0xcc,0x00,0xcc,0x00,
0xcc,0x00,0xcc,0x00,0xcc,0x00,0xcc,0x00,0xcc,0x00,0xff,0x00,0xff,0x00,0x00,
0x00,0x00,0x00,0xff,0x00,0xff,0x00,0xdb,0x00,0xdb,0x00,0xdb,0x00,0xdb,0x00,
0xdb,0x00,0xdb,0x00,0xdb,0x00,0xdb,0x00,0xdb,0x00,0xdb,0x00,0x1f,0x00,0x1f,
0x00,0x00,0x00,0x00,0x00,0x18,0x00,0x18,0x00,0xff,0x00,0xff,0x00,0x1b,0x00,
0x1b,0x00,0x1b,0x00,0x1b,0x00,0x1b,0x00,0x1b,0x00,0x1b,0x00,0x1b,0x00,0x1b,
0x00,0x1b,0x00,0x00,0x00,0x00,0x00,0x7c,0x00,0x7c,0x00,0x6c,0x03,0x6c,0x03,
0x6c,0x03,0x6c,0x03,0x6c,0x03,0x6c,0x03,0x6c,0x03,0x6c,0x03,0x6c,0x03,0x6c,
0x03,0xfc,0x03,0xfc,0x03,0x00,0x00,0x00,0x00,0xff,0x00,0xff,0x00,0x18,0x00,
0x18,0x00,0x18,0x00,0x18,0x00,0x18,0x00,0x18,0x00,0x18,0x00,0x18,0x00,0x18,
0x00,0x18,0x00,0xf8,0x00,0xf8,0x00,0x00,0x00,0x00,0x00,0xfb,0x00,0xfb,0x00,
0x00,0x00,0x00,0x00,0x00,0x00,0x00,0x00,0x00,0x00,0x00,0x00,0x00,0x00,0x00,
0x00,0x00,0x00,0x00,0x00,0x00,0x00,0x00,0x00,0x00,0x00,0x00,0x00,0xc0,0x00,
0xc0,0x00,0xc0,0x00,0xc0,0x00,0xc0,0x00,0xc0,0x00,0xc0,0x00,0xc0,0x00,0xc0,
0x00,0xc0,0x00,0xc0,0x00,0xc0,0x00,0xfb,0x00,0xfb,0x00,0x00,0x00,0x00,0x00,
0xff,0x00,0xff,0x00,0x18,0x00,0x18,0x00,0x18,0x00,0x18,0x00,0x18,0x00,0x18,
0x00,0x18,0x00,0x18,0x00,0xf8,0x00,0xf8,0x00,0x1f,0x00,0x1f,0x00,0x00,0x00,
0x00,0x00,0xff,0x00,0xff,0x00,0x00,0x00,0x00,0x00,0x00,0x00,0x00,0x00,0x00,
0x00,0x00,0x00,0x00,0x00,0x00,0x00,0x00,0x00,0x00,0x00,0x00,0x00,0x00,0x00,
0x00,0x00,0x00,0x00,0xfc,0x00,0xfc,0x00,0x0c,0x00,0x0c,0x00,0x0c,0x00,0x0c,
0x00,0xfc,0x00,0xfc,0x00,0x0c,0x00,0x0c,0x00,0x0c,0x00,0x0c,0x00,0xfc,0x00,
0xfc,0x00,0x00,0x00,0x00,0x00,0xfc,0x00,0xfc,0x00,0x0c,0x00,0x0c,0x00,0x0c,
0x00,0x0c,0x00,0x0c,0x00,0x0c,0x00,0x0c,0x00,0x0c,0x00,0x0c,0x00,0x0c,0x00,
0xfc,0x00,0xfc,0x00,0x00,0x00,0x00,0x00,0xfc,0x00,0xfc,0x00,0xcc,0x00,0xcc,
0x00,0xcc,0x00,0xcc,0x00,0xcc,0x00,0xcc,0x00,0xcc,0x00,0xcc,0x00,0xcc,0x00,
0xcc,0x00,0xfc,0x00,0xfc,0x00,0x00,0x00,0x00,0x00,0xfc,0x03,0xfc,0x03,0xcc,
0x00,0xcc,0x00,0xcc,0x00,0xcc,0x00,0xcc,0x00,0xcc,0x00,0xcc,0x00,0xcc,0x00,
0xcc,0x00,0xcc,0x00,0xfc,0x00,0xfc,0x00,0x00,0x00,0x00,0x00,0xfc,0x00,0xfc,
0x00,0xcc,0x00,0xcc,0x00,0xcc,0x00,0xcc,0x00,0xcc,0x00,0xcc,0x00,0xcc,0x00,
0xcc,0x00,0xcc,0x00,0xcc,0x00,0xfc,0x03,0xfc,0x03,0x00,0x00,0x00,0x00,0xfc,
0x00,0xfc,0x00,0x0c,0x00,0x0c,0x00,0x0c,0x00,0x0c,0x00,0x0c,0x00,0x0c,0x00,
0x0c,0x00,0x0c,0x00,0x0c,0x00,0x0c,0x00,0x0c,0x00,0x0c,0x00,0x00,0x00,0x00,
0x00,0x1f,0x00,0x1f,0x00,0xdb,0x00,0xdb,0x00,0xdb,0x00,0xdb,0x00,0xdb,0x00,
0xdb,0x00,0xdb,0x00,0xdb,0x00,0xdb,0x00,0xdb,0x00,0xf8,0x00,0xf8,0x00,0x00,
0x00,0x00,0x00,0x0c,0x00,0x0c,0x00,0xff,0x00,0xff,0x00,0xcc,0x00,0xcc,0x00,
0xcc,0x00,0xcc,0x00,0xcc,0x00,0xcc,0x00,0xcc,0x00,0xcc,0x00,0xcc,0x00,0xcc,
0x00,0x00,0x00,0x00,0x00,0xfc,0x00,0xfc,0x00,0xc0,0x00,0xc0,0x00,0xc0,0x00,
0xc0,0x00,0xc0,0x00,0xc0,0x00,0xc0,0x00,0xc0,0x00,0xc0,0x00,0xc0,0x00,0xfc,
0x00,0xfc,0x00,0x00,0x00,0x00,0x00,0xfc,0x00,0xfc,0x00,0xc0,0x00,0xc0,0x00,
0xc0,0x00,0xc0,0x00,0xc0,0x00,0xc0,0x00,0xc0,0x00,0xc0,0x00,0xc0,0x00,0xc0,
0x00,0x3c,0x00,0x3c,0x00,0x00,0x00,0x00,0x00,0xfc,0x00,0xfc,0x00,0xc0,0x00,
0xc0,0x00,0xc0,0x00,0xc0,0x00,0xfc,0x00,0xfc,0x00,0xc0,0x00,0xc0,0x00,0xc0,
0x00,0xc0,0x00,0xfc,0x00,0xfc,0x00,0x00,0x00,0x00,0x00,0xe7,0x00,0xe7,0x00,
0x18,0x00,0x18,0x00,0x18,0x00,0x18,0x00,0x18,0x00,0x18,0x00,0x18,0x00,0x18,
0x00,0x18,0x00,0x18,0x00,0xe7,0x00,0xe7,0x00,0x00,0x00,0x00,0x00,0x7c,0x00,
0x7c,0x00,0x60,0x03,0x60,0x03,0x60,0x03,0x60,0x03,0x60,0x03,0x60,0x03,0x60,
0x03,0x60,0x03,0x60,0x03,0x60,0x03,0xfc,0x03,0xfc,0x03,0x00,0x00,0x00,0x00,
0xf8,0x00,0xf8,0x00,0xdb,0x00,0xdb,0x00,0xdb,0x00,0xdb,0x00,0xdb,0x00,0xdb,
0x00,0xdb,0x00,0xdb,0x00,0xdb,0x00,0xdb,0x00,0x1f,0x00,0x1f,0x00,0x00,0x00,
0x00,0x00,0x18,0x00,0x18,0x00,0xff,0x00,0xff,0x00,0xc3,0x00,0xc3,0x00,0x00,
0x00,0x00,0x00,0x00,0x00,0x00,0x00,0x00,0x00,0x00,0x00,0x00,0x00,0x00,0x00,
0x00,0x00,0x00,0x00,0xff,0x00,0xff,0x00,0x00,0x00,0x00,0x00,0x00,0x00,0x00,
0x00,0x00,0x00,0x00,0x00,0x00,0x00,0x00,0x00,0x00,0x00,0x00,0x00,0x00,0x00,
0x00,0x00,0x00,0x00,0x00,0x00,0xc3,0x00,0xc3,0x00,0xff,0x00,0xff,0x00,0x18,
0x00,0x18,0x00,0x00,0x00,0x00,0x00,0x00,0x00,0x00,0x00,0x00,0x00,0x00,0x00,
0x00,0x00,0x00,0x00,0x00,0x00,0x00,0x00,0x03,0x00,0x03,0x00,0x03,0x00,0x03,
0x00,0x03,0x00,0x03,0x00,0x00,0x00,0x00,0x00,0x00,0x00,0x00,0x00,0x00,0x00,
0x00,0x00,0x00,0x00,0x00,0x00,0x00,0x00,0x00,0x00
};

#define f04b_31_font_w 16
#define f04b_31_font_h 10
#define f04b_31_font_asciioffset 32
#define f04b_31_font_baseline 7
#define f04b_31_font_meanline 4

static const uint8_t f04b_31_font_spaces[] = {
10, 4, 7, 16, 16, 16, 16, 4, 6, 6, 8, 12, 4, 12, 4, 10, 16, 6, 16, 16, 16, 16, 16, 16, 16, 16, 4, 4, 6, 12, 6, 16, 16, 16, 16, 16, 16, 16, 16, 16, 16, 4, 16, 16, 16, 16, 16, 16, 16, 16, 16, 16, 16, 16, 16, 16, 16, 16, 16, 6, 10, 6, 8, 12, 6, 16, 16, 16, 16, 16, 16, 16, 16, 4, 16, 16, 4, 16, 16, 16, 16, 16, 16, 16, 16, 16, 16, 16, 16, 16, 16, 8, 4, 8, 8, };