/** Converted by fconv.py from f04b_19.ttf (size 14) */

#define f04b_19_width 14
#define f04b_19_height 1140
static const uint8_t f04b_19_bits[] = {
0x00,0x00,0x00,0x00,0x00,0x00,0x00,0x00,0x00,0x00,0x00,0x00,0x00,0x00,0x00,
0x00,0x00,0x00,0x00,0x00,0x00,0x00,0x00,0x00,0xfe,0x0e,0xfe,0x0e,0xfe,0x0e,
0x00,0x00,0x00,0x00,0x00,0x00,0x00,0x00,0x00,0x00,0x00,0x00,0x00,0x00,0x00,
0x00,0x00,0x00,0x1e,0x00,0x1e,0x00,0x1e,0x00,0x00,0x00,0x1e,0x00,0x1e,0x00,
0x1e,0x00,0x00,0x00,0x00,0x00,0x00,0x00,0x00,0x00,0x00,0x00,0xb8,0x03,0xb8,
0x03,0xfe,0x0f,0xfe,0x0f,0xfe,0x0f,0xb8,0x03,0xfe,0x0f,0xfe,0x0f,0xfe,0x0f,
0xb8,0x03,0xb8,0x03,0x00,0x00,0xfe,0x0e,0xfe,0x0e,0xfe,0x0e,0xee,0x1f,0xff,
0x1f,0xff,0x1f,0xff,0x0e,0xee,0x0f,0xee,0x0f,0xee,0x0f,0x00,0x00,0x00,0x00,
0xce,0x0f,0xee,0x0f,0xee,0x0f,0xe0,0x00,0xfe,0x0e,0xfe,0x0e,0x7e,0x0e,0x00,
0x00,0x00,0x00,0x00,0x00,0x00,0x00,0x00,0x00,0xbe,0x0f,0xfe,0x0f,0xfe,0x0f,
0xee,0x0e,0xfe,0x0f,0xfe,0x0f,0xbe,0x0f,0xc0,0x03,0xc0,0x01,0xc0,0x01,0x00,
0x00,0x00,0x00,0x1e,0x00,0x1e,0x00,0x1e,0x00,0x00,0x00,0x00,0x00,0x00,0x00,
0x00,0x00,0x00,0x00,0x00,0x00,0x00,0x00,0x00,0x00,0x00,0x00,0xf8,0x03,0xf8,
0x03,0xfe,0x0f,0x0e,0x0e,0x0e,0x0e,0x00,0x00,0x00,0x00,0x00,0x00,0x00,0x00,
0x00,0x00,0x00,0x00,0x00,0x00,0x0e,0x0e,0x0e,0x0e,0xfe,0x0f,0xf8,0x03,0xf8,
0x03,0x00,0x00,0x00,0x00,0x00,0x00,0x00,0x00,0x00,0x00,0x00,0x00,0x00,0x00,
0xee,0x00,0xee,0x00,0xfe,0x00,0x38,0x00,0xfe,0x00,0xee,0x00,0xee,0x00,0x00,
0x00,0x00,0x00,0x00,0x00,0x00,0x00,0x00,0x00,0xe0,0x00,0xe0,0x00,0xe0,0x00,
0xfc,0x07,0xfc,0x07,0xfc,0x07,0xe0,0x00,0xe0,0x00,0xe0,0x00,0x00,0x00,0x00,
0x00,0x00,0x00,0x00,0x3e,0x00,0x3e,0x00,0x3e,0x00,0x00,0x00,0x00,0x00,0x00,
0x00,0x00,0x00,0x00,0x00,0x00,0x00,0x00,0x00,0x00,0x00,0x00,0xe0,0x00,0xe0,
0x00,0xe0,0x00,0xe0,0x00,0xe0,0x00,0xe0,0x00,0xe0,0x00,0x00,0x00,0x00,0x00,
0x00,0x00,0x00,0x00,0x00,0x00,0x00,0x0e,0x00,0x0e,0x00,0x0e,0x00,0x00,0x00,
0x00,0x00,0x00,0x00,0x00,0x00,0x00,0x00,0x00,0x00,0x00,0x00,0x00,0x00,0x00,
0x00,0x1c,0x80,0x1f,0xf0,0x1f,0xfe,0x03,0x7e,0x00,0x0e,0x00,0x00,0x00,0x00,
0x00,0x00,0x00,0x00,0x00,0x00,0x00,0x00,0x00,0xfe,0x0f,0xfe,0x0f,0xfe,0x0f,
0x0e,0x0e,0xfe,0x0f,0xfe,0x0f,0xfe,0x0f,0x00,0x00,0x00,0x00,0x00,0x00,0x00,
0x00,0x00,0x00,0x0e,0x00,0xfe,0x0f,0xfe,0x0f,0xfe,0x0f,0x00,0x00,0x00,0x00,
0x00,0x00,0x00,0x00,0x00,0x00,0x00,0x00,0x00,0x00,0x00,0x00,0xee,0x0f,0xee,
0x0f,0xee,0x0f,0xee,0x0e,0xfe,0x0e,0xfe,0x0e,0xfe,0x0e,0x00,0x00,0x00,0x00,
0x00,0x00,0x00,0x00,0x00,0x00,0xee,0x0e,0xee,0x0e,0xee,0x0e,0xee,0x0e,0xfe,
0x0f,0xfe,0x0f,0xfe,0x0f,0x00,0x00,0x00,0x00,0x00,0x00,0x00,0x00,0x00,0x00,
0xfe,0x03,0xfe,0x03,0xfe,0x03,0x80,0x03,0xfe,0x0f,0xfe,0x0f,0xfe,0x0f,0x00,
0x00,0x00,0x00,0x00,0x00,0x00,0x00,0x00,0x00,0xfe,0x0e,0xfe,0x0e,0xfe,0x0e,
0xee,0x0e,0xee,0x0f,0xee,0x0f,0xee,0x0f,0x00,0x00,0x00,0x00,0x00,0x00,0x00,
0x00,0x00,0x00,0xfe,0x0f,0xfe,0x0f,0xfe,0x0f,0xee,0x0e,0xee,0x0f,0xee,0x0f,
0xee,0x0f,0x00,0x00,0x00,0x00,0x00,0x00,0x00,0x00,0x00,0x00,0x7e,0x00,0x7e,
0x00,0x7e,0x00,0x0e,0x00,0xfe,0x0f,0xfe,0x0f,0xfe,0x0f,0x00,0x00,0x00,0x00,
0x00,0x00,0x00,0x00,0x00,0x00,0xfe,0x0f,0xfe,0x0f,0xfe,0x0f,0xee,0x0e,0xfe,
0x0f,0xfe,0x0f,0xfe,0x0f,0x00,0x00,0x00,0x00,0x00,0x00,0x00,0x00,0x00,0x00,
0xfe,0x0e,0xfe,0x0e,0xfe,0x0e,0xee,0x0e,0xfe,0x0f,0xfe,0x0f,0xfe,0x0f,0x00,
0x00,0x00,0x00,0x00,0x00,0x00,0x00,0x00,0x00,0xb8,0x03,0xb8,0x03,0xb8,0x03,
0x00,0x00,0x00,0x00,0x00,0x00,0x00,0x00,0x00,0x00,0x00,0x00,0x00,0x00,0x00,
0x00,0x00,0x00,0xb8,0x0f,0xb8,0x0f,0xb8,0x0f,0x00,0x00,0x00,0x00,0x00,0x00,
0x00,0x00,0x00,0x00,0x00,0x00,0x00,0x00,0x00,0x00,0x00,0x00,0xe0,0x00,0xe0,
0x00,0xf8,0x03,0xb8,0x03,0xbe,0x0f,0x0e,0x0e,0x0e,0x0e,0x00,0x00,0x00,0x00,
0x00,0x00,0x00,0x00,0x00,0x00,0xb8,0x03,0xb8,0x03,0xb8,0x03,0xb8,0x03,0xb8,
0x03,0xb8,0x03,0xb8,0x03,0x00,0x00,0x00,0x00,0x00,0x00,0x00,0x00,0x00,0x00,
0x0e,0x0e,0x0e,0x0e,0xbe,0x0f,0xb8,0x03,0xf8,0x03,0xe0,0x00,0xe0,0x00,0x00,
0x00,0x00,0x00,0x00,0x00,0x00,0x00,0x00,0x00,0xee,0x0e,0xee,0x0e,0xee,0x0e,
0xee,0x00,0xfe,0x00,0xfe,0x00,0xfe,0x00,0x00,0x00,0x00,0x00,0x00,0x00,0x00,
0x00,0x00,0x00,0xfe,0x0f,0xfe,0x0f,0xfe,0x0f,0x0e,0x0e,0xee,0x0f,0xee,0x0f,
0xee,0x0f,0xee,0x0e,0xfe,0x0f,0xfe,0x0f,0xfe,0x0f,0x00,0x00,0xfe,0x0f,0xfe,
0x0f,0xfe,0x0f,0xee,0x00,0xfe,0x0f,0xfe,0x0f,0xfe,0x0f,0x00,0x00,0x00,0x00,
0x00,0x00,0x00,0x00,0x00,0x00,0xfe,0x0f,0xfe,0x0f,0xfe,0x0f,0xee,0x0e,0xfe,
0x0f,0xfe,0x0f,0xbe,0x0f,0x00,0x00,0x00,0x00,0x00,0x00,0x00,0x00,0x00,0x00,
0xfe,0x0f,0xfe,0x0f,0xfe,0x0f,0x0e,0x0e,0xbe,0x0f,0xbe,0x0f,0xbe,0x0f,0x00,
0x00,0x00,0x00,0x00,0x00,0x00,0x00,0x00,0x00,0xfe,0x0f,0xfe,0x0f,0xfe,0x0f,
0x0e,0x0e,0xfe,0x0f,0xfe,0x0f,0xfc,0x07,0x00,0x00,0x00,0x00,0x00,0x00,0x00,
0x00,0x00,0x00,0xfe,0x0f,0xfe,0x0f,0xfe,0x0f,0xee,0x0e,0xee,0x0e,0xee,0x0e,
0xee,0x0e,0x00,0x00,0x00,0x00,0x00,0x00,0x00,0x00,0x00,0x00,0xfe,0x0f,0xfe,
0x0f,0xfe,0x0f,0xee,0x00,0xee,0x00,0xee,0x00,0xee,0x00,0x00,0x00,0x00,0x00,
0x00,0x00,0x00,0x00,0x00,0x00,0xfe,0x0f,0xfe,0x0f,0xfe,0x0f,0x0e,0x0e,0xee,
0x0f,0xee,0x0f,0xee,0x0f,0x00,0x00,0x00,0x00,0x00,0x00,0x00,0x00,0x00,0x00,
0xfe,0x0f,0xfe,0x0f,0xfe,0x0f,0xe0,0x00,0xfe,0x0f,0xfe,0x0f,0xfe,0x0f,0x00,
0x00,0x00,0x00,0x00,0x00,0x00,0x00,0x00,0x00,0xfe,0x0f,0xfe,0x0f,0xfe,0x0f,
0x00,0x00,0x00,0x00,0x00,0x00,0x00,0x00,0x00,0x00,0x00,0x00,0x00,0x00,0x00,
0x00,0x00,0x00,0xe0,0x0f,0xe0,0x0f,0xe0,0x0f,0x00,0x0e,0xfe,0x0f,0xfe,0x0f,
0xfe,0x0f,0x00,0x00,0x00,0x00,0x00,0x00,0x00,0x00,0x00,0x00,0xfe,0x0f,0xfe,
0x0f,0xfe,0x0f,0xf0,0x01,0xfe,0x0f,0xfe,0x0f,0xbe,0x0f,0x00,0x00,0x00,0x00,
0x00,0x00,0x00,0x00,0x00,0x00,0xfe,0x0f,0xfe,0x0f,0xfe,0x0f,0x00,0x0e,0x00,
0x0e,0x00,0x00,0x00,0x00,0x00,0x00,0x00,0x00,0x00,0x00,0x00,0x00,0x00,0x00,
0xfe,0x0f,0xfe,0x0f,0xfe,0x0f,0x0e,0x00,0xfe,0x0f,0xfe,0x0f,0xfe,0x0f,0x0e,
0x00,0xfe,0x0f,0xfe,0x0f,0xfe,0x0f,0x00,0x00,0xfe,0x0f,0xfe,0x0f,0xfe,0x0f,
0x0e,0x00,0xfe,0x0f,0xfe,0x0f,0xfe,0x0f,0x00,0x00,0x00,0x00,0x00,0x00,0x00,
0x00,0x00,0x00,0xfe,0x0f,0xfe,0x0f,0xfe,0x0f,0x0e,0x0e,0xfe,0x0f,0xfe,0x0f,
0xfe,0x0f,0x00,0x00,0x00,0x00,0x00,0x00,0x00,0x00,0x00,0x00,0xfe,0x0f,0xfe,
0x0f,0xfe,0x0f,0x8e,0x03,0xfe,0x03,0xfe,0x03,0xfe,0x03,0x00,0x00,0x00,0x00,
0x00,0x00,0x00,0x00,0x00,0x00,0xfe,0x0f,0xfe,0x0f,0xfe,0x1f,0x0e,0x1e,0xfe,
0x1f,0xfe,0x0f,0xfe,0x0f,0x00,0x00,0x00,0x00,0x00,0x00,0x00,0x00,0x00,0x00,
0xfe,0x0f,0xfe,0x0f,0xfe,0x0f,0x8e,0x07,0xfe,0x0f,0xfe,0x0f,0xfe,0x0e,0x00,
0x00,0x00,0x00,0x00,0x00,0x00,0x00,0x00,0x00,0xfe,0x0e,0xfe,0x0e,0xfe,0x0e,
0xee,0x0e,0xee,0x0f,0xee,0x0f,0xee,0x0f,0x00,0x00,0x00,0x00,0x00,0x00,0x00,
0x00,0x00,0x00,0x0e,0x00,0x0e,0x00,0xfe,0x0f,0xfe,0x0f,0xfe,0x0f,0x0e,0x00,
0x0e,0x00,0x00,0x00,0x00,0x00,0x00,0x00,0x00,0x00,0x00,0x00,0xfe,0x0f,0xfe,
0x0f,0xfe,0x0f,0x00,0x0e,0xfe,0x0f,0xfe,0x0f,0xfe,0x0f,0x00,0x00,0x00,0x00,
0x00,0x00,0x00,0x00,0x00,0x00,0xfe,0x07,0xfe,0x0f,0xfe,0x0f,0x00,0x0e,0xfe,
0x0f,0xfe,0x0f,0xfe,0x07,0x00,0x00,0x00,0x00,0x00,0x00,0x00,0x00,0x00,0x00,
0xfe,0x0f,0xfe,0x0f,0xfe,0x0f,0x00,0x0e,0xfe,0x0f,0xfe,0x0f,0xfe,0x0f,0x00,
0x0e,0xfe,0x0f,0xfe,0x0f,0xfe,0x0f,0x00,0x00,0xbe,0x0f,0xfe,0x0f,0xfe,0x0f,
0xf0,0x01,0xfe,0x0f,0xfe,0x0f,0xbe,0x0f,0x00,0x00,0x00,0x00,0x00,0x00,0x00,
0x00,0x00,0x00,0xfe,0x00,0xfe,0x00,0xfe,0x0f,0xe0,0x0f,0xfe,0x0f,0xfe,0x00,
0xfe,0x00,0x00,0x00,0x00,0x00,0x00,0x00,0x00,0x00,0x00,0x00,0xee,0x0f,0xee,
0x0f,0xee,0x0f,0xee,0x0e,0xfe,0x0e,0xfe,0x0e,0xfe,0x0e,0x00,0x00,0x00,0x00,
0x00,0x00,0x00,0x00,0x00,0x00,0xfe,0x0f,0xfe,0x0f,0xfe,0x0f,0x0e,0x0e,0x00,
0x00,0x00,0x00,0x00,0x00,0x00,0x00,0x00,0x00,0x00,0x00,0x00,0x00,0x00,0x00,
0x0e,0x00,0x7e,0x00,0xfe,0x03,0xf0,0x1f,0x80,0x1f,0x00,0x1c,0x00,0x00,0x00,
0x00,0x00,0x00,0x00,0x00,0x00,0x00,0x00,0x00,0x0e,0x0e,0xfe,0x0f,0xfe,0x0f,
0xfe,0x0f,0x00,0x00,0x00,0x00,0x00,0x00,0x00,0x00,0x00,0x00,0x00,0x00,0x00,
0x00,0x00,0x00,0x38,0x00,0x38,0x00,0x3e,0x00,0x0e,0x00,0x3e,0x00,0x38,0x00,
0x38,0x00,0x00,0x00,0x00,0x00,0x00,0x00,0x00,0x00,0x00,0x00,0x00,0x0e,0x00,
0x0e,0x00,0x0e,0x00,0x0e,0x00,0x0e,0x00,0x0e,0x00,0x0e,0x00,0x00,0x00,0x00,
0x00,0x00,0x00,0x00,0x00,0x00,0x0e,0x00,0x0e,0x00,0x0e,0x00,0x0e,0x00,0x0e,
0x00,0x00,0x00,0x00,0x00,0x00,0x00,0x00,0x00,0x00,0x00,0x00,0x00,0x00,0x00,
0xe0,0x0f,0xee,0x0f,0xee,0x0f,0xee,0x0e,0xfe,0x0f,0xfe,0x0f,0xfe,0x0f,0x00,
0x00,0x00,0x00,0x00,0x00,0x00,0x00,0x00,0x00,0xfe,0x0f,0xfe,0x0f,0xfe,0x0f,
0x38,0x0e,0xf8,0x0f,0xf8,0x0f,0xf8,0x0f,0x00,0x00,0x00,0x00,0x00,0x00,0x00,
0x00,0x00,0x00,0xfc,0x0f,0xfc,0x0f,0xfc,0x0f,0x1c,0x0e,0xbc,0x0f,0xbc,0x0f,
0xbc,0x0f,0x00,0x00,0x00,0x00,0x00,0x00,0x00,0x00,0x00,0x00,0xf8,0x0f,0xf8,
0x0f,0xf8,0x0f,0x38,0x0e,0xfe,0x0f,0xfe,0x0f,0xfe,0x0f,0x00,0x00,0x00,0x00,
0x00,0x00,0x00,0x00,0x00,0x00,0xfe,0x0f,0xfe,0x0f,0xfe,0x0f,0xee,0x0e,0xfe,
0x0e,0xfe,0x0e,0xfe,0x0e,0x00,0x00,0x00,0x00,0x00,0x00,0x00,0x00,0x00,0x00,
0xe0,0x0e,0xfe,0x0e,0xfe,0x0e,0xfe,0x0f,0xee,0x0f,0xee,0x0f,0xee,0x00,0x00,
0x00,0x00,0x00,0x00,0x00,0x00,0x00,0x00,0x00,0xf8,0x3b,0xf8,0x3b,0xf8,0x3b,
0xb8,0x3b,0xf8,0x3f,0xf8,0x3f,0xf8,0x3f,0x00,0x00,0x00,0x00,0x00,0x00,0x00,
0x00,0x00,0x00,0xfe,0x0f,0xfe,0x0f,0xfe,0x0f,0x38,0x00,0xf8,0x0f,0xf8,0x0f,
0xf8,0x0f,0x00,0x00,0x00,0x00,0x00,0x00,0x00,0x00,0x00,0x00,0xee,0x0f,0xee,
0x0f,0xee,0x0f,0x00,0x00,0x00,0x00,0x00,0x00,0x00,0x00,0x00,0x00,0x00,0x00,
0x00,0x00,0x00,0x00,0x00,0x00,0xe0,0x0f,0xe0,0x0f,0xe0,0x0f,0x00,0x0e,0xee,
0x0f,0xee,0x0f,0xee,0x0f,0x00,0x00,0x00,0x00,0x00,0x00,0x00,0x00,0x00,0x00,
0xfe,0x0f,0xfe,0x0f,0xfe,0x0f,0xe0,0x03,0xf8,0x0f,0xf8,0x0f,0x78,0x0f,0x00,
0x00,0x00,0x00,0x00,0x00,0x00,0x00,0x00,0x00,0xfe,0x0f,0xfe,0x0f,0xfe,0x0f,
0x00,0x00,0x00,0x00,0x00,0x00,0x00,0x00,0x00,0x00,0x00,0x00,0x00,0x00,0x00,
0x00,0x00,0x00,0xfc,0x0f,0xfc,0x0f,0xfc,0x0f,0x1c,0x00,0xfc,0x0f,0xfc,0x0f,
0xfc,0x0f,0x1c,0x00,0xfc,0x0f,0xfc,0x0f,0xfc,0x0f,0x00,0x00,0xfc,0x0f,0xfc,
0x0f,0xfc,0x0f,0x1c,0x00,0xfc,0x0f,0xfc,0x0f,0xfc,0x0f,0x00,0x00,0x00,0x00,
0x00,0x00,0x00,0x00,0x00,0x00,0xfc,0x0f,0xfc,0x0f,0xfc,0x0f,0x1c,0x0e,0xfc,
0x0f,0xfc,0x0f,0xfc,0x0f,0x00,0x00,0x00,0x00,0x00,0x00,0x00,0x00,0x00,0x00,
0xf8,0x3f,0xf8,0x3f,0xf8,0x3f,0x38,0x0e,0xf8,0x0f,0xf8,0x0f,0xf8,0x0f,0x00,
0x00,0x00,0x00,0x00,0x00,0x00,0x00,0x00,0x00,0xf8,0x0f,0xf8,0x0f,0xf8,0x0f,
0x38,0x0e,0xf8,0x3f,0xf8,0x3f,0xf8,0x3f,0x00,0x00,0x00,0x00,0x00,0x00,0x00,
0x00,0x00,0x00,0xfc,0x0f,0xfc,0x0f,0xfc,0x0f,0x1c,0x00,0x7c,0x00,0x7c,0x00,
0x7c,0x00,0x00,0x00,0x00,0x00,0x00,0x00,0x00,0x00,0x00,0x00,0xfe,0x0e,0xfe,
0x0e,0xfe,0x0e,0xee,0x0e,0xee,0x0f,0xee,0x0f,0xee,0x0f,0x00,0x00,0x00,0x00,
0x00,0x00,0x00,0x00,0x00,0x00,0xfe,0x0f,0xfe,0x0f,0xfe,0x0f,0x38,0x0e,0xb8,
0x0f,0xb8,0x0f,0xb8,0x0f,0x00,0x00,0x00,0x00,0x00,0x00,0x00,0x00,0x00,0x00,
0xfc,0x0f,0xfc,0x0f,0xfc,0x0f,0x00,0x0e,0xfc,0x0f,0xfc,0x0f,0xfc,0x0f,0x00,
0x00,0x00,0x00,0x00,0x00,0x00,0x00,0x00,0x00,0xfc,0x07,0xfc,0x0f,0xfc,0x0f,
0x00,0x0e,0xfc,0x0f,0xfc,0x0f,0xfc,0x07,0x00,0x00,0x00,0x00,0x00,0x00,0x00,
0x00,0x00,0x00,0xfc,0x0f,0xfc,0x0f,0xfc,0x0f,0x00,0x0e,0xfc,0x0f,0xfc,0x0f,
0xfc,0x0f,0x00,0x0e,0xfc,0x0f,0xfc,0x0f,0xfc,0x0f,0x00,0x00,0xbc,0x0f,0xfc,
0x0f,0xfc,0x0f,0xf0,0x01,0xfc,0x0f,0xfc,0x0f,0xbc,0x0f,0x00,0x00,0x00,0x00,
0x00,0x00,0x00,0x00,0x00,0x00,0xf8,0x03,0xf8,0x3b,0xf8,0x3b,0x80,0x3b,0xf8,
0x3f,0xf8,0x3f,0xf8,0x3f,0x00,0x00,0x00,0x00,0x00,0x00,0x00,0x00,0x00,0x00,
0xee,0x0f,0xee,0x0f,0xee,0x0f,0xee,0x0e,0xfe,0x0e,0xfe,0x0e,0xfe,0x0e,0x00,
0x00,0x00,0x00,0x00,0x00,0x00,0x00,0x00,0x00,0xe0,0x00,0xfe,0x0f,0xfe,0x0f,
0xfe,0x0f,0x0e,0x0e,0x00,0x00,0x00,0x00,0x00,0x00,0x00,0x00,0x00,0x00,0x00,
0x00,0x00,0x00,0xfe,0x0f,0xfe,0x0f,0xfe,0x0f,0x00,0x00,0x00,0x00,0x00,0x00,
0x00,0x00,0x00,0x00,0x00,0x00,0x00,0x00,0x00,0x00,0x00,0x00,0x0e,0x0e,0xfe,
0x0f,0xfe,0x0f,0xfe,0x0f,0xe0,0x00,0x00,0x00,0x00,0x00,0x00,0x00,0x00,0x00,
0x00,0x00,0x00,0x00,0x00,0x00,0x0e,0x00,0x0e,0x00,0x0e,0x00,0x0e,0x00,0x0e,
0x00,0x00,0x00,0x00,0x00,0x00,0x00,0x00,0x00,0x00,0x00,0x00,0x00,0x00,0x00
};

#define f04b_19_font_w 12
#define f04b_19_font_h 14
#define f04b_19_font_asciioffset 32
#define f04b_19_font_baseline 11
#define f04b_19_font_meanline 7

static const uint8_t f04b_19_font_spaces[] = {
6, 4, 8, 12, 11, 8, 11, 4, 6, 6, 8, 10, 4, 8, 4, 7, 8, 5, 8, 8, 8, 8, 8, 8, 8, 8, 4, 4, 8, 8, 8, 8, 12, 8, 8, 8, 8, 8, 8, 8, 8, 4, 8, 8, 6, 12, 8, 8, 8, 8, 8, 8, 8, 8, 8, 12, 8, 8, 8, 5, 7, 5, 8, 8, 6, 8, 8, 8, 8, 8, 8, 8, 8, 4, 8, 8, 4, 12, 8, 8, 8, 8, 8, 8, 8, 8, 8, 12, 8, 8, 8, 6, 4, 6, 6, };