/** Converted by fconv.py from f04b_25.ttf (size 12) */

#define f04b_25_width 11
#define f04b_25_height 855
static const uint8_t f04b_25_bits[] = {
0x00,0x00,0x00,0x00,0x00,0x00,0x00,0x00,0x00,0x00,0x00,0x00,0x00,0x00,0x00,
0x00,0x00,0x00,0xbe,0x01,0xbe,0x01,0x00,0x00,0x00,0x00,0x00,0x00,0x00,0x00,
0x00,0x00,0x00,0x00,0x00,0x00,0x0e,0x00,0x0e,0x00,0x00,0x00,0x0e,0x00,0x0e,
0x00,0x00,0x00,0x00,0x00,0x00,0x00,0x00,0x00,0xcc,0x00,0xfe,0x01,0xfe,0x01,
0xcc,0x00,0xfe,0x01,0xfe,0x01,0xcc,0x00,0x00,0x00,0x00,0x00,0x1c,0x00,0xbe,
0x01,0xf6,0x03,0xff,0x03,0xbf,0x01,0xf6,0x01,0xe0,0x00,0x00,0x00,0x00,0x00,
0xc6,0x01,0xe6,0x01,0x70,0x00,0x38,0x00,0x9e,0x01,0x8e,0x01,0x00,0x00,0x00,
0x00,0x00,0x00,0xfc,0x00,0xfe,0x01,0xb6,0x01,0xfe,0x01,0xec,0x00,0xf0,0x01,
0xb0,0x01,0x00,0x00,0x00,0x00,0x0e,0x00,0x0e,0x00,0x00,0x00,0x00,0x00,0x00,
0x00,0x00,0x00,0x00,0x00,0x00,0x00,0x00,0x00,0xfc,0x00,0xfe,0x01,0x86,0x01,
0x86,0x01,0x00,0x00,0x00,0x00,0x00,0x00,0x00,0x00,0x00,0x00,0x86,0x01,0x86,
0x01,0xfe,0x01,0xfc,0x00,0x00,0x00,0x00,0x00,0x00,0x00,0x00,0x00,0x00,0x00,
0x36,0x00,0x3e,0x00,0x1c,0x00,0x3e,0x00,0x36,0x00,0x00,0x00,0x00,0x00,0x00,
0x00,0x00,0x00,0x30,0x00,0x30,0x00,0xfc,0x00,0xfc,0x00,0x30,0x00,0x30,0x00,
0x00,0x00,0x00,0x00,0x00,0x00,0x80,0x03,0x80,0x03,0x00,0x00,0x00,0x00,0x00,
0x00,0x00,0x00,0x00,0x00,0x00,0x00,0x00,0x00,0x30,0x00,0x30,0x00,0x30,0x00,
0x30,0x00,0x30,0x00,0x30,0x00,0x00,0x00,0x00,0x00,0x00,0x00,0x80,0x01,0x80,
0x01,0x00,0x00,0x00,0x00,0x00,0x00,0x00,0x00,0x00,0x00,0x00,0x00,0x00,0x00,
0x80,0x01,0xc0,0x01,0xe0,0x00,0x70,0x00,0x38,0x00,0x1c,0x00,0x0e,0x00,0x06,
0x00,0x00,0x00,0xfc,0x00,0xfe,0x01,0x86,0x01,0xfe,0x01,0xfc,0x00,0x00,0x00,
0x00,0x00,0x00,0x00,0x00,0x00,0x06,0x00,0xfe,0x01,0xfc,0x01,0x00,0x00,0x00,
0x00,0x00,0x00,0x00,0x00,0x00,0x00,0x00,0x00,0xe6,0x01,0xf6,0x01,0xb6,0x01,
0xbe,0x01,0x9c,0x01,0x00,0x00,0x00,0x00,0x00,0x00,0x00,0x00,0xb6,0x01,0xb6,
0x01,0xb6,0x01,0xfe,0x01,0xfc,0x00,0x00,0x00,0x00,0x00,0x00,0x00,0x00,0x00,
0x3e,0x00,0x7e,0x00,0x60,0x00,0xfe,0x01,0xfe,0x01,0x00,0x00,0x00,0x00,0x00,
0x00,0x00,0x00,0xbe,0x01,0xbe,0x01,0xb6,0x01,0xf6,0x01,0xe6,0x00,0x00,0x00,
0x00,0x00,0x00,0x00,0x00,0x00,0xfc,0x00,0xfe,0x01,0xb6,0x01,0xf6,0x01,0xe0,
0x00,0x00,0x00,0x00,0x00,0x00,0x00,0x00,0x00,0x06,0x00,0xe6,0x01,0xf6,0x01,
0x3e,0x00,0x1e,0x00,0x00,0x00,0x00,0x00,0x00,0x00,0x00,0x00,0xfc,0x00,0xfe,
0x01,0xb6,0x01,0xfe,0x01,0xfc,0x00,0x00,0x00,0x00,0x00,0x00,0x00,0x00,0x00,
0x1c,0x00,0xbe,0x01,0xb6,0x01,0xfe,0x01,0xfc,0x00,0x00,0x00,0x00,0x00,0x00,
0x00,0x00,0x00,0xcc,0x00,0xcc,0x00,0x00,0x00,0x00,0x00,0x00,0x00,0x00,0x00,
0x00,0x00,0x00,0x00,0x00,0x00,0xcc,0x01,0xcc,0x01,0x00,0x00,0x00,0x00,0x00,
0x00,0x00,0x00,0x00,0x00,0x00,0x00,0x00,0x00,0x30,0x00,0x78,0x00,0xfc,0x00,
0xce,0x01,0x86,0x01,0x00,0x00,0x00,0x00,0x00,0x00,0x00,0x00,0xcc,0x00,0xcc,
0x00,0xcc,0x00,0xcc,0x00,0xcc,0x00,0x00,0x00,0x00,0x00,0x00,0x00,0x00,0x00,
0x86,0x01,0xce,0x01,0xfc,0x00,0x78,0x00,0x30,0x00,0x00,0x00,0x00,0x00,0x00,
0x00,0x00,0x00,0x06,0x00,0xb6,0x01,0xb6,0x01,0x3e,0x00,0x1c,0x00,0x00,0x00,
0x00,0x00,0x00,0x00,0x00,0x00,0xfc,0x00,0xfe,0x01,0x86,0x01,0xf6,0x01,0xf6,
0x01,0xb6,0x01,0xfe,0x01,0xfc,0x01,0x00,0x00,0xfc,0x01,0xfe,0x01,0x66,0x00,
0xfe,0x01,0xfc,0x01,0x00,0x00,0x00,0x00,0x00,0x00,0x00,0x00,0xfe,0x01,0xfe,
0x01,0xb6,0x01,0xfe,0x01,0xfc,0x00,0x00,0x00,0x00,0x00,0x00,0x00,0x00,0x00,
0xfc,0x00,0xfe,0x01,0x86,0x01,0xce,0x01,0xcc,0x00,0x00,0x00,0x00,0x00,0x00,
0x00,0x00,0x00,0xfe,0x01,0xfe,0x01,0x86,0x01,0xfe,0x01,0xfc,0x00,0x00,0x00,
0x00,0x00,0x00,0x00,0x00,0x00,0xfc,0x00,0xfe,0x01,0xb6,0x01,0xb6,0x01,0xb6,
0x01,0x00,0x00,0x00,0x00,0x00,0x00,0x00,0x00,0xfc,0x01,0xfe,0x01,0x36,0x00,
0x36,0x00,0x36,0x00,0x00,0x00,0x00,0x00,0x00,0x00,0x00,0x00,0xfc,0x00,0xfe,
0x01,0x86,0x01,0xf6,0x01,0xf6,0x01,0x00,0x00,0x00,0x00,0x00,0x00,0x00,0x00,
0xfe,0x01,0xfe,0x01,0x30,0x00,0xfe,0x01,0xfe,0x01,0x00,0x00,0x00,0x00,0x00,
0x00,0x00,0x00,0xfe,0x01,0xfe,0x01,0x00,0x00,0x00,0x00,0x00,0x00,0x00,0x00,
0x00,0x00,0x00,0x00,0x00,0x00,0xf0,0x00,0xf0,0x01,0x86,0x01,0xfe,0x01,0xfe,
0x00,0x00,0x00,0x00,0x00,0x00,0x00,0x00,0x00,0xfe,0x01,0xfe,0x01,0x30,0x00,
0xfe,0x01,0xee,0x01,0x00,0x00,0x00,0x00,0x00,0x00,0x00,0x00,0xfe,0x00,0xfe,
0x01,0x80,0x01,0x80,0x01,0x80,0x01,0x00,0x00,0x00,0x00,0x00,0x00,0x00,0x00,
0xfe,0x01,0xfe,0x01,0x06,0x00,0xfe,0x01,0xfe,0x01,0x06,0x00,0xfe,0x01,0xfc,
0x01,0x00,0x00,0xfe,0x01,0xfe,0x01,0x06,0x00,0xfe,0x01,0xfc,0x01,0x00,0x00,
0x00,0x00,0x00,0x00,0x00,0x00,0xfc,0x00,0xfe,0x01,0x86,0x01,0xfe,0x01,0xfc,
0x00,0x00,0x00,0x00,0x00,0x00,0x00,0x00,0x00,0xfe,0x01,0xfe,0x01,0x66,0x00,
0x7e,0x00,0x3c,0x00,0x00,0x00,0x00,0x00,0x00,0x00,0x00,0x00,0xfc,0x00,0xfe,
0x01,0x86,0x03,0xfe,0x03,0xfc,0x00,0x00,0x00,0x00,0x00,0x00,0x00,0x00,0x00,
0xfe,0x01,0xfe,0x01,0x66,0x00,0xfe,0x01,0xbc,0x01,0x00,0x00,0x00,0x00,0x00,
0x00,0x00,0x00,0x9c,0x01,0xbe,0x01,0xb6,0x01,0xf6,0x01,0xe6,0x00,0x00,0x00,
0x00,0x00,0x00,0x00,0x00,0x00,0x06,0x00,0x06,0x00,0xfe,0x01,0xfe,0x01,0x06,
0x00,0x06,0x00,0x00,0x00,0x00,0x00,0x00,0x00,0xfe,0x00,0xfe,0x01,0x80,0x01,
0xfe,0x01,0xfe,0x00,0x00,0x00,0x00,0x00,0x00,0x00,0x00,0x00,0xfe,0x01,0xfe,
0x01,0x80,0x01,0xfe,0x00,0x7e,0x00,0x00,0x00,0x00,0x00,0x00,0x00,0x00,0x00,
0xfe,0x01,0xfe,0x01,0x80,0x01,0xfe,0x01,0xfe,0x01,0x80,0x01,0xfe,0x00,0x7e,
0x00,0x00,0x00,0xee,0x01,0xfe,0x01,0x30,0x00,0xfe,0x01,0xee,0x01,0x00,0x00,
0x00,0x00,0x00,0x00,0x00,0x00,0x1e,0x00,0xbe,0x01,0xb0,0x01,0xfe,0x01,0xfe,
0x00,0x00,0x00,0x00,0x00,0x00,0x00,0x00,0x00,0xe6,0x01,0xf6,0x01,0xb6,0x01,
0xbe,0x01,0x9e,0x01,0x00,0x00,0x00,0x00,0x00,0x00,0x00,0x00,0xfe,0x01,0xfe,
0x01,0x86,0x01,0x86,0x01,0x00,0x00,0x00,0x00,0x00,0x00,0x00,0x00,0x00,0x00,
0x06,0x00,0x0e,0x00,0x1c,0x00,0x38,0x00,0x70,0x00,0xe0,0x00,0xc0,0x01,0x80,
0x01,0x00,0x00,0x86,0x01,0x86,0x01,0xfe,0x01,0xfe,0x01,0x00,0x00,0x00,0x00,
0x00,0x00,0x00,0x00,0x00,0x00,0x06,0x00,0x06,0x00,0x06,0x00,0x00,0x00,0x00,
0x00,0x00,0x00,0x00,0x00,0x00,0x00,0x00,0x00,0x80,0x01,0x80,0x01,0x80,0x01,
0x80,0x01,0x80,0x01,0x00,0x00,0x00,0x00,0x00,0x00,0x00,0x00,0x06,0x00,0x06,
0x00,0x06,0x00,0x00,0x00,0x00,0x00,0x00,0x00,0x00,0x00,0x00,0x00,0x00,0x00,
0xf0,0x00,0xf8,0x01,0x98,0x01,0xf8,0x01,0xf8,0x01,0x00,0x00,0x00,0x00,0x00,
0x00,0x00,0x00,0xfe,0x01,0xfe,0x01,0x98,0x01,0xf8,0x01,0xf0,0x00,0x00,0x00,
0x00,0x00,0x00,0x00,0x00,0x00,0xf0,0x00,0xf8,0x01,0x98,0x01,0x98,0x01,0x98,
0x01,0x00,0x00,0x00,0x00,0x00,0x00,0x00,0x00,0xf0,0x00,0xf8,0x01,0x98,0x01,
0xfe,0x01,0xfe,0x01,0x00,0x00,0x00,0x00,0x00,0x00,0x00,0x00,0xf8,0x00,0xfc,
0x01,0xec,0x01,0x7c,0x00,0x78,0x00,0x00,0x00,0x00,0x00,0x00,0x00,0x00,0x00,
0x30,0x00,0xfc,0x01,0xfe,0x01,0x36,0x00,0x36,0x00,0x00,0x00,0x00,0x00,0x00,
0x00,0x00,0x00,0xf0,0x00,0xf8,0x01,0x98,0x07,0xf8,0x07,0xf8,0x03,0x00,0x00,
0x00,0x00,0x00,0x00,0x00,0x00,0xfe,0x01,0xfe,0x01,0x18,0x00,0xf8,0x01,0xf0,
0x01,0x00,0x00,0x00,0x00,0x00,0x00,0x00,0x00,0xec,0x01,0xec,0x01,0x00,0x00,
0x00,0x00,0x00,0x00,0x00,0x00,0x00,0x00,0x00,0x00,0x00,0x00,0x00,0x06,0xec,
0x07,0xec,0x03,0x00,0x00,0x00,0x00,0x00,0x00,0x00,0x00,0x00,0x00,0x00,0x00,
0xfe,0x01,0xfe,0x01,0x60,0x00,0xf8,0x01,0xd8,0x01,0x00,0x00,0x00,0x00,0x00,
0x00,0x00,0x00,0xfe,0x01,0xfe,0x01,0x00,0x00,0x00,0x00,0x00,0x00,0x00,0x00,
0x00,0x00,0x00,0x00,0x00,0x00,0xf8,0x01,0xf8,0x01,0x18,0x00,0xf8,0x01,0xf8,
0x01,0x18,0x00,0xf8,0x01,0xf0,0x01,0x00,0x00,0xf8,0x01,0xf8,0x01,0x18,0x00,
0xf8,0x01,0xf0,0x01,0x00,0x00,0x00,0x00,0x00,0x00,0x00,0x00,0xf0,0x00,0xf8,
0x01,0x98,0x01,0xf8,0x01,0xf0,0x00,0x00,0x00,0x00,0x00,0x00,0x00,0x00,0x00,
0xf8,0x07,0xf8,0x07,0x98,0x01,0xf8,0x01,0xf0,0x00,0x00,0x00,0x00,0x00,0x00,
0x00,0x00,0x00,0xf0,0x00,0xf8,0x01,0x98,0x01,0xf8,0x07,0xf8,0x07,0x00,0x00,
0x00,0x00,0x00,0x00,0x00,0x00,0xf0,0x01,0xf8,0x01,0x18,0x00,0x18,0x00,0x18,
0x00,0x00,0x00,0x00,0x00,0x00,0x00,0x00,0x00,0xb0,0x01,0xb8,0x01,0xf8,0x01,
0xd8,0x01,0xd8,0x00,0x00,0x00,0x00,0x00,0x00,0x00,0x00,0x00,0x18,0x00,0xfe,
0x00,0xfe,0x01,0x98,0x01,0x98,0x01,0x00,0x00,0x00,0x00,0x00,0x00,0x00,0x00,
0xf8,0x00,0xf8,0x01,0x80,0x01,0xf8,0x01,0xf8,0x01,0x00,0x00,0x00,0x00,0x00,
0x00,0x00,0x00,0xf8,0x01,0xf8,0x01,0x80,0x01,0xf8,0x00,0x78,0x00,0x00,0x00,
0x00,0x00,0x00,0x00,0x00,0x00,0xf8,0x01,0xf8,0x01,0x80,0x01,0xf8,0x01,0xf8,
0x01,0x80,0x01,0xf8,0x00,0x78,0x00,0x00,0x00,0xd8,0x01,0xf8,0x01,0x60,0x00,
0xf8,0x01,0xd8,0x01,0x00,0x00,0x00,0x00,0x00,0x00,0x00,0x00,0x78,0x00,0xf8,
0x00,0xc0,0x06,0xf8,0x07,0xf8,0x03,0x00,0x00,0x00,0x00,0x00,0x00,0x00,0x00,
0x98,0x01,0xd8,0x01,0xf8,0x01,0xb8,0x01,0x98,0x01,0x00,0x00,0x00,0x00,0x00,
0x00,0x00,0x00,0x30,0x00,0xfc,0x00,0xfe,0x01,0x86,0x01,0x00,0x00,0x00,0x00,
0x00,0x00,0x00,0x00,0x00,0x00,0xfe,0x01,0xfe,0x01,0x00,0x00,0x00,0x00,0x00,
0x00,0x00,0x00,0x00,0x00,0x00,0x00,0x00,0x00,0x86,0x01,0xfe,0x01,0xfc,0x00,
0x30,0x00,0x00,0x00,0x00,0x00,0x00,0x00,0x00,0x00,0x00,0x00,0x06,0x00,0x06,
0x00,0x06,0x00,0x00,0x00,0x00,0x00,0x00,0x00,0x00,0x00,0x00,0x00,0x00,0x00
};

#define f04b_25_font_w 9
#define f04b_25_font_h 11
#define f04b_25_font_asciioffset 32
#define f04b_25_font_baseline 8
#define f04b_25_font_meanline 6

static const uint8_t f04b_25_font_spaces[] = {
4, 3, 6, 8, 8, 7, 8, 3, 5, 5, 6, 7, 3, 7, 3, 9, 6, 4, 6, 6, 6, 6, 6, 6, 6, 6, 3, 3, 6, 6, 6, 6, 9, 6, 6, 6, 6, 6, 6, 6, 6, 3, 6, 6, 6, 9, 6, 6, 6, 6, 6, 6, 7, 6, 6, 9, 6, 6, 6, 5, 9, 5, 4, 6, 4, 6, 6, 6, 6, 6, 6, 6, 6, 3, 4, 6, 3, 9, 6, 6, 6, 6, 6, 6, 6, 6, 6, 9, 6, 6, 6, 5, 3, 5, 4, };