/** Converted by fconv.py from f04b_20.ttf (size 8) */

#define f04b_20_width 8
#define f04b_20_height 1045
static const uint8_t f04b_20_bits[] = {
0x00,0x00,0x00,0x00,0x00,0x00,0x00,0x00,0x00,0x00,0x00,0xdf,0xdf,0x00,0x00,
0x00,0x00,0x00,0x00,0x00,0x00,0x00,0x0f,0x0f,0x00,0x0f,0x0f,0x00,0x00,0x00,
0x00,0x00,0x00,0x66,0x66,0xff,0xff,0x66,0x66,0xff,0xff,0x66,0x66,0x00,0xce,
0xdf,0xdb,0xdb,0xff,0xff,0xdb,0xdb,0xfb,0x73,0x00,0x07,0xc7,0xe7,0x70,0x38,
0x1c,0x0e,0xe7,0xe3,0xe0,0x00,0x66,0xff,0xdb,0xdb,0xdb,0xdb,0xff,0x76,0xf8,
0xd8,0x00,0x0f,0x0f,0x00,0x00,0x00,0x00,0x00,0x00,0x00,0x00,0x00,0x3c,0x7e,
0xe7,0xc3,0x00,0x00,0x00,0x00,0x00,0x00,0x00,0xc3,0xe7,0x7e,0x3c,0x00,0x00,
0x00,0x00,0x00,0x00,0x00,0x1b,0x1f,0x0e,0x1f,0x1b,0x00,0x00,0x00,0x00,0x00,
0x00,0x18,0x18,0x18,0x18,0xff,0xff,0x18,0x18,0x18,0x18,0x00,0xf0,0xf0,0x00,
0x00,0x00,0x00,0x00,0x00,0x00,0x00,0x00,0x18,0x18,0x18,0x18,0x18,0x18,0x18,
0x18,0x18,0x18,0x00,0xc0,0xc0,0x00,0x00,0x00,0x00,0x00,0x00,0x00,0x00,0x00,
0xc0,0xe0,0x70,0x38,0x1c,0x0e,0x07,0x03,0x00,0x00,0x00,0x7e,0xff,0xc3,0xc3,
0xc3,0xc3,0xc3,0xc3,0xff,0x7e,0x00,0x03,0x03,0xff,0xfe,0x00,0x00,0x00,0x00,
0x00,0x00,0x00,0xf3,0xfb,0xdb,0xdb,0xdb,0xdb,0xdb,0xdb,0xdf,0xce,0x00,0xc3,
0xdb,0xdb,0xdb,0xdb,0xdb,0xdb,0xdb,0xff,0x7e,0x00,0x1f,0x3f,0x30,0x30,0x30,
0x30,0xff,0xff,0x30,0x30,0x00,0xdf,0xdf,0xdb,0xdb,0xdb,0xdb,0xdb,0xdb,0xfb,
0x73,0x00,0x7e,0xff,0xdb,0xdb,0xdb,0xdb,0xdb,0xdb,0xfb,0x70,0x00,0x03,0x03,
0x03,0x03,0x03,0x03,0x03,0x03,0xff,0xfe,0x00,0x7e,0xff,0xdb,0xdb,0xdb,0xdb,
0xdb,0xdb,0xff,0x7e,0x00,0x0e,0xdf,0xdb,0xdb,0xdb,0xdb,0xdb,0xdb,0xff,0x7e,
0x00,0x66,0x66,0x00,0x00,0x00,0x00,0x00,0x00,0x00,0x00,0x00,0xe6,0xe6,0x00,
0x00,0x00,0x00,0x00,0x00,0x00,0x00,0x00,0x18,0x3c,0x7e,0xe7,0xc3,0x00,0x00,
0x00,0x00,0x00,0x00,0x66,0x66,0x66,0x66,0x66,0x66,0x66,0x66,0x66,0x66,0x00,
0xc3,0xe7,0x7e,0x3c,0x18,0x00,0x00,0x00,0x00,0x00,0x00,0x06,0x07,0x03,0x03,
0xdb,0xdb,0x1b,0x1b,0x1f,0x0e,0x00,0x7e,0xff,0xc3,0xfb,0xfb,0xdb,0xdb,0xdb,
0xff,0x7e,0x00,0xfe,0xff,0x1b,0x1b,0x1b,0x1b,0x1b,0x1b,0xff,0xfe,0x00,0xff,
0xff,0xdb,0xdb,0xdb,0xdb,0xdb,0xdb,0xff,0x7e,0x00,0x7e,0xff,0xc3,0xc3,0xc3,
0xc3,0xc3,0xc3,0xc3,0xc3,0x00,0xff,0xff,0xc3,0xc3,0xc3,0xc3,0xc3,0xc3,0xff,
0x7e,0x00,0x7e,0xff,0xdb,0xdb,0xdb,0xdb,0xdb,0xdb,0xdb,0xdb,0x00,0xfe,0xff,
0x1b,0x1b,0x1b,0x1b,0x1b,0x1b,0x1b,0x1b,0x00,0x7e,0xff,0xc3,0xc3,0xdb,0xdb,
0xdb,0xdb,0xfb,0xfb,0x00,0xff,0xff,0x18,0x18,0x18,0x18,0x18,0x18,0xff,0xff,
0x00,0xff,0xff,0x00,0x00,0x00,0x00,0x00,0x00,0x00,0x00,0x00,0x70,0xf0,0xc0,
0xc0,0xc0,0xc0,0xc0,0xc0,0xff,0x7f,0x00,0xff,0xff,0x18,0x18,0x18,0x18,0x3c,
0x7e,0xe7,0xc3,0x00,0x7f,0xff,0xc0,0xc0,0xc0,0xc0,0xc0,0xc0,0xc0,0xc0,0x00,
0xff,0xff,0x0e,0x1c,0x38,0x38,0x1c,0x0e,0xff,0xff,0x00,0xff,0xff,0x07,0x0e,
0x1c,0x38,0x70,0xe0,0xff,0xff,0x00,0x7e,0xff,0xc3,0xc3,0xc3,0xc3,0xc3,0xc3,
0xff,0x7e,0x00,0xff,0xff,0x33,0x33,0x33,0x33,0x33,0x33,0x3f,0x1e,0x00,0x7e,
0xff,0xc3,0xc3,0xc3,0xc3,0xc3,0xff,0xfe,0xc0,0x00,0xff,0xff,0x33,0x33,0x33,
0x33,0x33,0x73,0xff,0xce,0x00,0xce,0xdf,0xdb,0xdb,0xdb,0xdb,0xdb,0xdb,0xfb,
0x73,0x00,0x03,0x03,0x03,0x03,0xff,0xff,0x03,0x03,0x03,0x03,0x00,0x7f,0xff,
0xc0,0xc0,0xc0,0xc0,0xc0,0xc0,0xff,0x7f,0x00,0x0f,0x1f,0x38,0x70,0xe0,0xe0,
0x70,0x38,0x1f,0x0f,0x00,0xff,0xff,0x70,0x38,0x1c,0x1c,0x38,0x70,0xff,0xff,
0x00,0xc3,0xe7,0x7e,0x3c,0x18,0x18,0x3c,0x7e,0xe7,0xc3,0x00,0x0f,0xdf,0xd8,
0xd8,0xd8,0xd8,0xd8,0xd8,0xff,0x7f,0x00,0xf3,0xfb,0xdb,0xdb,0xdb,0xdb,0xdb,
0xdb,0xdf,0xcf,0x00,0xff,0xff,0xc3,0xc3,0x00,0x00,0x00,0x00,0x00,0x00,0x00,
0x03,0x07,0x0e,0x1c,0x38,0x70,0xe0,0xc0,0x00,0x00,0x00,0xc3,0xc3,0xff,0xff,
0x00,0x00,0x00,0x00,0x00,0x00,0x00,0x06,0x07,0x03,0x07,0x06,0x00,0x00,0x00,
0x00,0x00,0x00,0xc0,0xc0,0xc0,0xc0,0xc0,0xc0,0xc0,0xc0,0xc0,0xc0,0x00,0x03,
0x07,0x06,0x00,0x00,0x00,0x00,0x00,0x00,0x00,0x00,0x70,0xfb,0xdb,0xdb,0xdb,
0xdb,0xdb,0xdb,0xff,0xfe,0x00,0xff,0xff,0xcc,0xcc,0xcc,0xcc,0xcc,0xcc,0xfc,
0x78,0x00,0x7e,0xff,0xc3,0xc3,0xc3,0xc3,0xc3,0xc3,0xc3,0xc3,0x00,0x78,0xfc,
0xcc,0xcc,0xcc,0xcc,0xcc,0xcc,0xff,0xff,0x00,0x7e,0xff,0xdb,0xdb,0xdb,0xdb,
0xdb,0xdb,0xdf,0x1e,0x00,0x18,0x18,0xfe,0xff,0x1b,0x1b,0x1b,0x1b,0x1b,0x1b,
0x00,0x0e,0xdf,0xdb,0xdb,0xdb,0xdb,0xdb,0xdb,0xff,0x7f,0x00,0xff,0xff,0x0c,
0x0c,0x0c,0x0c,0x0c,0x0c,0xfc,0xf8,0x00,0xfb,0xfb,0x00,0x00,0x00,0x00,0x00,
0x00,0x00,0x00,0x00,0x70,0xf0,0xc0,0xc0,0xc0,0xc0,0xc0,0xc0,0xfb,0x7b,0x00,
0xff,0xff,0x18,0x18,0x18,0x18,0xf8,0xf8,0x1f,0x0f,0x00,0xff,0xff,0x00,0x00,
0x00,0x00,0x00,0x00,0x00,0x00,0x00,0xff,0xff,0x03,0x03,0xff,0xff,0x03,0x03,
0xff,0xfe,0x00,0xff,0xff,0x03,0x03,0x03,0x03,0x03,0x03,0xff,0xfe,0x00,0x7e,
0xff,0xc3,0xc3,0xc3,0xc3,0xc3,0xc3,0xff,0x7e,0x00,0xff,0xff,0x33,0x33,0x33,
0x33,0x33,0x33,0x3f,0x1e,0x00,0x1e,0x3f,0x33,0x33,0x33,0x33,0x33,0x33,0xff,
0xff,0x00,0xfe,0xff,0x03,0x03,0x03,0x03,0x03,0x03,0x03,0x03,0x00,0xce,0xdf,
0xdb,0xdb,0xdb,0xdb,0xdb,0xdb,0xfb,0x73,0x00,0x0c,0x0c,0x7f,0xff,0xcc,0xcc,
0xcc,0xcc,0xcc,0xcc,0x00,0x7f,0xff,0xc0,0xc0,0xc0,0xc0,0xc0,0xc0,0xff,0x7f,
0x00,0xff,0xff,0xc0,0xc0,0xc0,0xc0,0xc0,0xc0,0xff,0x7f,0x00,0xff,0xff,0xc0,
0xc0,0xff,0xff,0xc0,0xc0,0xff,0x7f,0x00,0xc3,0xe7,0x7e,0x3c,0x18,0x18,0x3c,
0x7e,0xe7,0xc3,0x00,0x0f,0xdf,0xd8,0xd8,0xd8,0xd8,0xd8,0xd8,0xff,0x7f,0x00,
0xf3,0xfb,0xdb,0xdb,0xdb,0xdb,0xdb,0xdb,0xdf,0xcf,0x00,0x18,0x7e,0xff,0xc3,
0x00,0x00,0x00,0x00,0x00,0x00,0x00,0xff,0xff,0x00,0x00,0x00,0x00,0x00,0x00,
0x00,0x00,0x00,0xc3,0xff,0x7e,0x18,0x00,0x00,0x00,0x00,0x00,0x00,0x00,0x03,
0x03,0x03,0x03,0x00,0x00,0x00,0x00,0x00,0x00,0x00
};

#define f04b_20_font_w 11
#define f04b_20_font_h 8
#define f04b_20_font_asciioffset 32
#define f04b_20_font_baseline 7
#define f04b_20_font_meanline 4

static const uint8_t f04b_20_font_spaces[] = {
6, 3, 6, 11, 11, 11, 11, 3, 5, 5, 6, 11, 3, 11, 3, 9, 11, 5, 11, 11, 11, 11, 11, 11, 11, 11, 3, 3, 6, 11, 6, 11, 11, 11, 11, 11, 11, 11, 11, 11, 11, 3, 11, 11, 11, 11, 11, 11, 11, 11, 11, 11, 11, 11, 11, 11, 11, 11, 11, 5, 9, 5, 6, 11, 4, 11, 11, 11, 11, 11, 11, 11, 11, 3, 11, 11, 3, 11, 11, 11, 11, 11, 11, 11, 11, 11, 11, 11, 11, 11, 11, 5, 3, 5, 5, };