/** Converted by fconv.py from f04b_03.ttf (size 8) */

#define f04b_03_width 7
#define f04b_03_height 570
static const uint8_t f04b_03_bits[] = {
0x00,0x00,0x00,0x00,0x00,0x00,0x17,0x00,0x00,0x00,0x00,0x00,0x03,0x00,0x03,
0x00,0x00,0x00,0x0a,0x1f,0x0a,0x1f,0x0a,0x00,0x14,0x16,0x3b,0x0a,0x00,0x00,
0x01,0x18,0x04,0x03,0x10,0x00,0x0a,0x15,0x15,0x08,0x14,0x00,0x03,0x00,0x00,
0x00,0x00,0x00,0x0e,0x11,0x00,0x00,0x00,0x00,0x11,0x0e,0x00,0x00,0x00,0x00,
0x05,0x02,0x05,0x00,0x00,0x00,0x04,0x0e,0x04,0x00,0x00,0x00,0x20,0x10,0x00,
0x00,0x00,0x00,0x04,0x04,0x04,0x00,0x00,0x00,0x10,0x00,0x00,0x00,0x00,0x00,
0x10,0x08,0x04,0x02,0x01,0x00,0x0e,0x11,0x11,0x0e,0x00,0x00,0x01,0x1f,0x00,
0x00,0x00,0x00,0x19,0x15,0x15,0x12,0x00,0x00,0x11,0x15,0x15,0x0a,0x00,0x00,
0x0c,0x0a,0x1f,0x08,0x00,0x00,0x17,0x15,0x15,0x09,0x00,0x00,0x0e,0x15,0x15,
0x08,0x00,0x00,0x01,0x19,0x05,0x03,0x00,0x00,0x0a,0x15,0x15,0x0a,0x00,0x00,
0x02,0x15,0x15,0x0e,0x00,0x00,0x0a,0x00,0x00,0x00,0x00,0x00,0x1a,0x00,0x00,
0x00,0x00,0x00,0x04,0x0a,0x11,0x00,0x00,0x00,0x0a,0x0a,0x0a,0x00,0x00,0x00,
0x11,0x0a,0x04,0x00,0x00,0x00,0x01,0x15,0x05,0x02,0x00,0x00,0x0e,0x11,0x1d,
0x15,0x0e,0x00,0x1e,0x09,0x09,0x1e,0x00,0x00,0x1f,0x15,0x15,0x0a,0x00,0x00,
0x0e,0x11,0x11,0x00,0x00,0x00,0x1f,0x11,0x11,0x0e,0x00,0x00,0x1f,0x15,0x15,
0x00,0x00,0x00,0x1f,0x05,0x05,0x00,0x00,0x00,0x0e,0x11,0x15,0x1d,0x00,0x00,
0x1f,0x04,0x04,0x1f,0x00,0x00,0x11,0x1f,0x11,0x00,0x00,0x00,0x08,0x10,0x11,
0x0f,0x00,0x00,0x1f,0x04,0x0a,0x11,0x00,0x00,0x1f,0x10,0x10,0x00,0x00,0x00,
0x1f,0x02,0x04,0x02,0x1f,0x00,0x1f,0x02,0x04,0x1f,0x00,0x00,0x0e,0x11,0x11,
0x0e,0x00,0x00,0x1f,0x09,0x09,0x06,0x00,0x00,0x0e,0x11,0x11,0x2e,0x00,0x00,
0x1f,0x09,0x09,0x16,0x00,0x00,0x12,0x15,0x15,0x09,0x00,0x00,0x01,0x1f,0x01,
0x00,0x00,0x00,0x0f,0x10,0x10,0x0f,0x00,0x00,0x0f,0x10,0x0c,0x03,0x00,0x00,
0x0f,0x10,0x0e,0x10,0x0f,0x00,0x1b,0x04,0x04,0x1b,0x00,0x00,0x03,0x14,0x14,
0x0f,0x00,0x00,0x19,0x15,0x13,0x00,0x00,0x00,0x1f,0x11,0x00,0x00,0x00,0x00,
0x01,0x02,0x04,0x08,0x10,0x00,0x11,0x1f,0x00,0x00,0x00,0x00,0x02,0x01,0x02,
0x00,0x00,0x00,0x10,0x10,0x10,0x10,0x00,0x00,0x01,0x02,0x00,0x00,0x00,0x00,
0x0c,0x12,0x12,0x1e,0x00,0x00,0x1f,0x12,0x12,0x0c,0x00,0x00,0x0c,0x12,0x12,
0x00,0x00,0x00,0x0c,0x12,0x12,0x1f,0x00,0x00,0x0c,0x1a,0x16,0x04,0x00,0x00,
0x04,0x1e,0x05,0x00,0x00,0x00,0x0c,0x52,0x52,0x3e,0x00,0x00,0x1f,0x02,0x02,
0x1c,0x00,0x00,0x1d,0x00,0x00,0x00,0x00,0x00,0x40,0x3d,0x00,0x00,0x00,0x00,
0x1f,0x08,0x0c,0x12,0x00,0x00,0x1f,0x00,0x00,0x00,0x00,0x00,0x1e,0x02,0x1e,
0x02,0x1c,0x00,0x1e,0x02,0x02,0x1c,0x00,0x00,0x0c,0x12,0x12,0x0c,0x00,0x00,
0x7e,0x12,0x12,0x0c,0x00,0x00,0x0c,0x12,0x12,0x7e,0x00,0x00,0x1e,0x04,0x02,
0x00,0x00,0x00,0x14,0x16,0x1a,0x0a,0x00,0x00,0x02,0x0f,0x12,0x00,0x00,0x00,
0x0e,0x10,0x10,0x1e,0x00,0x00,0x0e,0x10,0x08,0x06,0x00,0x00,0x06,0x18,0x06,
0x18,0x06,0x00,0x12,0x0c,0x12,0x00,0x00,0x00,0x0e,0x50,0x50,0x3e,0x00,0x00,
0x12,0x1a,0x16,0x12,0x00,0x00,0x04,0x1b,0x11,0x00,0x00,0x00,0x1f,0x00,0x00,
0x00,0x00,0x00,0x11,0x1b,0x04,0x00,0x00,0x00,0x02,0x01,0x02,0x01,0x00,0x00
};

#define f04b_03_font_w 6
#define f04b_03_font_h 7
#define f04b_03_font_asciioffset 32
#define f04b_03_font_baseline 4
#define f04b_03_font_meanline 3

static const uint8_t f04b_03_font_spaces[] = {
4, 2, 4, 6, 5, 6, 6, 2, 3, 3, 4, 4, 3, 4, 2, 6, 5, 3, 5, 5, 5, 5, 5, 5, 5, 5, 2, 2, 4, 4, 4, 5, 6, 5, 5, 4, 5, 4, 4, 5, 5, 4, 5, 5, 4, 6, 5, 5, 5, 5, 5, 5, 4, 5, 5, 6, 5, 5, 4, 3, 6, 3, 4, 5, 3, 5, 5, 4, 5, 5, 4, 5, 5, 2, 3, 5, 2, 6, 5, 5, 5, 5, 4, 5, 4, 5, 5, 6, 4, 5, 5, 4, 2, 4, 5, };