#define icon_width 32
#define icon_height 8
static uint8_t icon_bits[] = {
   0xC0, 0xC1, 0x81, 0xC0, 0x20, 0x22, 0x82, 0x21, 0x21, 0x20, 0x80,
   0x60, 0xC2, 0xC1, 0x80, 0xA0, 0x23, 0x00, 0x81, 0x20, 0x20, 0x02,
   0x82, 0x20, 0xC0, 0xE1, 0xC3, 0xC1, 0x00, 0x00, 0x00, 0x00
   };
