#define msg_width 16
#define msg_height 18
static uint8_t msg_bits[] = {
   0xF8, 0xFF, 0x18, 0x80, 0x18, 0x8A, 0x18, 0x8A, 0x18, 0x8A, 0x18,
   0x8A, 0x18, 0x82, 0x1E, 0x88, 0xFF, 0x88, 0xA1, 0x8A, 0xFF, 0x8A,
   0x18, 0x82, 0x18, 0x8A, 0x18, 0x8A, 0x18, 0x8A, 0x18, 0x8A, 0x18,
   0x80, 0xF8, 0xFF
   };
