#define scissors_width 23
#define scissors_height 18
static uint8_t scissors_bits[] = {
   0x00, 0x00, 0x1E, 0xFE, 0x00, 0x3F, 0x01, 0x83, 0x7B, 0x06, 0x84,
   0x71, 0x18, 0x88, 0x7B, 0x60, 0x10, 0x3F, 0x80, 0xE3, 0x1F, 0x00,
   0xEC, 0x0F, 0x00, 0xF0, 0x03, 0x00, 0xF0, 0x03, 0x00, 0xEC, 0x0F,
   0x80, 0xE3, 0x1F, 0x60, 0x10, 0x3F, 0x18, 0x88, 0x7B, 0x06, 0x84,
   0x71, 0x01, 0x83, 0x7B, 0xFE, 0x00, 0x3F, 0x00, 0x00, 0x1E
   };
