#define wall_width 128
#define wall_height 128
static uint8_t wall_bits[] = {
   0x00, 0x03, 0x00, 0x6E, 0xC0, 0xE7, 0xEF, 0x3C, 0x80, 0xC3, 0x0F,
   0x1E, 0xF8, 0x03, 0x00, 0xDE, 0x00, 0xFF, 0xC0, 0x67, 0x80, 0x7F,
   0xC0, 0x0D, 0x00, 0xFF, 0x00, 0x78, 0x3C, 0x0E, 0xC0, 0x87, 0x00,
   0xFF, 0xC0, 0x67, 0x80, 0x7F, 0xC0, 0x0D, 0x00, 0xFF, 0x00, 0x78,
   0x3C, 0x0E, 0xC0, 0x87, 0x00, 0x02, 0x7F, 0x26, 0x00, 0x19, 0x00,
   0x07, 0x00, 0x7E, 0x00, 0xD8, 0x0F, 0xF8, 0xFF, 0x00, 0x00, 0x02,
   0x7F, 0x26, 0x00, 0x19, 0x00, 0x07, 0x00, 0x7E, 0x00, 0xD8, 0x0F,
   0xF8, 0xFF, 0x00, 0x00, 0x06, 0x1F, 0x3C, 0x00, 0x0A, 0x00, 0x07,
   0x00, 0x6C, 0x00, 0x98, 0x07, 0x58, 0x1C, 0x00, 0x00, 0xC4, 0x03,
   0x38, 0x00, 0x0E, 0x00, 0x06, 0x00, 0x38, 0x00, 0x90, 0x03, 0x10,
   0x0C, 0x80, 0x00, 0xC4, 0x03, 0x38, 0x00, 0x0E, 0x00, 0x06, 0x00,
   0x38, 0x00, 0x90, 0x03, 0x10, 0x0C, 0x80, 0x00, 0x64, 0x00, 0x70,
   0x00, 0x06, 0x00, 0x03, 0x00, 0x30, 0x00, 0xD8, 0x00, 0x10, 0x07,
   0x00, 0x00, 0x64, 0x00, 0x70, 0x00, 0x06, 0x00, 0x03, 0x00, 0x30,
   0x00, 0xD8, 0x00, 0x10, 0x07, 0x00, 0x00, 0x34, 0x00, 0x60, 0x00,
   0x06, 0x00, 0x03, 0x00, 0x60, 0x00, 0x70, 0x00, 0xB0, 0x03, 0x00,
   0x00, 0x16, 0x00, 0x40, 0x00, 0x06, 0x80, 0x03, 0x00, 0x60, 0x00,
   0x30, 0x00, 0xE0, 0x00, 0x00, 0x00, 0x16, 0x00, 0x40, 0x00, 0x06,
   0x80, 0x03, 0x00, 0x60, 0x00, 0x30, 0x00, 0xE0, 0x00, 0x00, 0x00,
   0x1A, 0x00, 0xC0, 0x00, 0x0F, 0xC0, 0x03, 0x00, 0x40, 0x00, 0x18,
   0x00, 0x60, 0x00, 0x80, 0x00, 0x1A, 0x00, 0xC0, 0x00, 0x0F, 0xC0,
   0x03, 0x00, 0x40, 0x00, 0x18, 0x00, 0x60, 0x00, 0x80, 0x00, 0x1B,
   0x00, 0x80, 0x03, 0xFF, 0xFF, 0x03, 0x00, 0xC0, 0x00, 0x18, 0x00,
   0x20, 0x00, 0x00, 0x00, 0x1B, 0x00, 0x80, 0x03, 0xFF, 0xFF, 0x03,
   0x00, 0xC0, 0x00, 0x18, 0x00, 0x20, 0x00, 0x00, 0xC0, 0x1F, 0x00,
   0x80, 0xCF, 0x83, 0x7F, 0x01, 0x00, 0x80, 0x00, 0x18, 0x00, 0x30,
   0x00, 0x00, 0x78, 0x3C, 0x00, 0x80, 0x73, 0x00, 0xC0, 0x01, 0x00,
   0x80, 0x00, 0x08, 0x00, 0x10, 0x00, 0x80, 0x78, 0x3C, 0x00, 0x80,
   0x73, 0x00, 0xC0, 0x01, 0x00, 0x80, 0x00, 0x08, 0x00, 0x10, 0x00,
   0x80, 0x1F, 0x30, 0x00, 0x00, 0x33, 0x00, 0x00, 0x03, 0x00, 0xC0,
   0x03, 0x0C, 0x00, 0x18, 0x00, 0x80, 0x1F, 0x30, 0x00, 0x00, 0x33,
   0x00, 0x00, 0x03, 0x00, 0xC0, 0x03, 0x0C, 0x00, 0x18, 0x00, 0x80,
   0x07, 0x20, 0x00, 0x00, 0x1B, 0x00, 0x00, 0x03, 0x00, 0xC0, 0x03,
   0x0C, 0x00, 0x18, 0x00, 0xC0, 0x03, 0x20, 0x00, 0x00, 0x0F, 0x00,
   0x00, 0x02, 0x00, 0x60, 0x07, 0x0E, 0x00, 0x1C, 0x00, 0xE0, 0x03,
   0x20, 0x00, 0x00, 0x0F, 0x00, 0x00, 0x02, 0x00, 0x60, 0x07, 0x0E,
   0x00, 0x1C, 0x00, 0xE0, 0x03, 0x40, 0x00, 0x00, 0x0F, 0x00, 0x00,
   0x06, 0x00, 0x60, 0x1C, 0x0F, 0x00, 0x34, 0x00, 0xF0, 0x03, 0x40,
   0x00, 0x00, 0x0F, 0x00, 0x00, 0x06, 0x00, 0x60, 0x1C, 0x0F, 0x00,
   0x34, 0x00, 0xF0, 0x03, 0xC0, 0x00, 0x80, 0x07, 0x00, 0x00, 0x04,
   0x00, 0x20, 0xF0, 0x19, 0x00, 0x36, 0x00, 0x70, 0x03, 0xC0, 0x00,
   0x80, 0x07, 0x00, 0x00, 0x04, 0x00, 0x20, 0xF0, 0x19, 0x00, 0x36,
   0x00, 0x70, 0x03, 0xC0, 0x00, 0x00, 0x07, 0x00, 0x00, 0x04, 0x00,
   0x30, 0x68, 0x70, 0x80, 0x3F, 0x00, 0x38, 0x03, 0xC0, 0x00, 0x80,
   0x03, 0x00, 0x00, 0x0C, 0x00, 0xF0, 0xFF, 0xC7, 0xF7, 0x78, 0x00,
   0x2E, 0x03, 0xC0, 0x00, 0x80, 0x03, 0x00, 0x00, 0x0C, 0x00, 0xF0,
   0xFF, 0xC7, 0xF7, 0x78, 0x00, 0x2E, 0x03, 0xC0, 0x00, 0x80, 0x03,
   0x00, 0x00, 0x0C, 0x00, 0xF8, 0x00, 0x0C, 0x3F, 0xE0, 0x80, 0x3F,
   0x03, 0xC0, 0x00, 0x80, 0x03, 0x00, 0x00, 0x0C, 0x00, 0xF8, 0x00,
   0x0C, 0x3F, 0xE0, 0x80, 0x3F, 0x03, 0xC0, 0x03, 0x80, 0x03, 0x00,
   0x00, 0x0E, 0x00, 0x1C, 0x00, 0x38, 0x0C, 0xE0, 0xFF, 0xF8, 0x07,
   0xE0, 0x07, 0xC0, 0x03, 0x00, 0x00, 0x32, 0x00, 0x0E, 0x00, 0x60,
   0x04, 0x30, 0x1F, 0xC0, 0x07, 0xE0, 0x07, 0xC0, 0x03, 0x00, 0x00,
   0x32, 0x00, 0x0E, 0x00, 0x60, 0x04, 0x30, 0x1F, 0xC0, 0x07, 0xF0,
   0x1F, 0xC0, 0x03, 0x00, 0x00, 0xF7, 0x00, 0x07, 0x00, 0xC0, 0x07,
   0xF0, 0x07, 0x00, 0x07, 0xF0, 0x1F, 0xC0, 0x03, 0x00, 0x00, 0xF7,
   0x00, 0x07, 0x00, 0xC0, 0x07, 0xF0, 0x07, 0x00, 0x0F, 0x3C, 0x70,
   0xC0, 0x0F, 0x00, 0xC0, 0xCF, 0x87, 0x03, 0x00, 0x80, 0x03, 0x78,
   0x00, 0x00, 0x3C, 0x0F, 0xE0, 0xE1, 0x3F, 0x00, 0x78, 0x3C, 0x9F,
   0x01, 0x00, 0x80, 0x03, 0x1C, 0x00, 0x80, 0x3C, 0x0F, 0xE0, 0xE1,
   0x3F, 0x00, 0x78, 0x3C, 0x9F, 0x01, 0x00, 0x80, 0x03, 0x1C, 0x00,
   0x80, 0xF8, 0x07, 0xC0, 0x7F, 0xF0, 0x8A, 0x1F, 0x20, 0xF8, 0x00,
   0x00, 0x00, 0x07, 0x0E, 0x00, 0x00, 0xF8, 0x07, 0xC0, 0x7F, 0xF0,
   0x8A, 0x1F, 0x20, 0xF8, 0x00, 0x00, 0x00, 0x07, 0x0E, 0x00, 0x00,
   0x70, 0x03, 0xC0, 0x3C, 0xC0, 0xFF, 0x03, 0x60, 0x60, 0x00, 0x00,
   0x00, 0x07, 0x07, 0x00, 0x00, 0x70, 0x03, 0xC0, 0x3C, 0xC0, 0xFF,
   0x03, 0x60, 0x60, 0x00, 0x00, 0x00, 0x07, 0x07, 0x00, 0x00, 0xC0,
   0x03, 0x80, 0x1C, 0xC0, 0x70, 0x00, 0x40, 0x20, 0x00, 0x00, 0x00,
   0x9C, 0x03, 0x00, 0x00, 0x80, 0x01, 0xC0, 0x0E, 0x80, 0x30, 0x00,
   0x40, 0x30, 0x00, 0x00, 0x00, 0xFC, 0x01, 0x00, 0x80, 0x80, 0x01,
   0xC0, 0x0E, 0x80, 0x30, 0x00, 0x40, 0x30, 0x00, 0x00, 0x00, 0xFC,
   0x01, 0x00, 0x80, 0x00, 0x01, 0x80, 0x07, 0x80, 0x19, 0x00, 0x60,
   0x10, 0x00, 0x00, 0x00, 0xEC, 0x00, 0x00, 0x00, 0x00, 0x01, 0x80,
   0x07, 0x80, 0x19, 0x00, 0x60, 0x10, 0x00, 0x00, 0x00, 0xEC, 0x00,
   0x00, 0x00, 0x00, 0x01, 0x80, 0x03, 0x00, 0x07, 0x00, 0x20, 0x18,
   0x00, 0x00, 0x00, 0x68, 0x00, 0x00, 0x00, 0x00, 0x03, 0xC0, 0x01,
   0x00, 0x07, 0x00, 0xB0, 0x17, 0x00, 0x00, 0x00, 0x6C, 0x00, 0x00,
   0x00, 0x00, 0x03, 0xC0, 0x01, 0x00, 0x07, 0x00, 0xB0, 0x17, 0x00,
   0x00, 0x00, 0x6C, 0x00, 0x00, 0x00, 0x00, 0x02, 0xC0, 0x00, 0x00,
   0x01, 0x00, 0xF0, 0x3F, 0x00, 0x00, 0x00, 0x24, 0x00, 0x00, 0x80,
   0x00, 0x02, 0xC0, 0x00, 0x00, 0x01, 0x00, 0xF0, 0x3F, 0x00, 0x00,
   0x00, 0x24, 0x00, 0x00, 0x80, 0x00, 0x06, 0xC0, 0x00, 0x80, 0x01,
   0x00, 0x70, 0x38, 0x00, 0x00, 0x00, 0x37, 0x00, 0x00, 0x00, 0x00,
   0x06, 0xC0, 0x00, 0x80, 0x01, 0x00, 0x70, 0x38, 0x00, 0x00, 0x00,
   0x37, 0x00, 0x00, 0x00, 0x00, 0x04, 0x40, 0x00, 0x80, 0x01, 0x00,
   0x38, 0x20, 0x00, 0x00, 0x00, 0x37, 0x00, 0x00, 0x00, 0x00, 0x06,
   0x60, 0x00, 0xC0, 0x00, 0x00, 0x18, 0x60, 0x00, 0x00, 0xE0, 0x23,
   0x00, 0x00, 0x00, 0x00, 0x06, 0x60, 0x00, 0xC0, 0x00, 0x00, 0x18,
   0x60, 0x00, 0x00, 0xE0, 0x23, 0x00, 0x00, 0x00, 0x00, 0x0E, 0x60,
   0x00, 0xC0, 0x00, 0x00, 0x0C, 0x40, 0x00, 0x00, 0xFC, 0x60, 0x00,
   0x00, 0x80, 0x00, 0x0E, 0x60, 0x00, 0xC0, 0x00, 0x00, 0x0C, 0x40,
   0x00, 0x00, 0xFC, 0x60, 0x00, 0x00, 0x80, 0x00, 0x0E, 0x70, 0x00,
   0xC0, 0x00, 0x00, 0x06, 0xE0, 0x01, 0x80, 0x8F, 0x67, 0x00, 0x00,
   0x00, 0x00, 0x1B, 0x70, 0x00, 0xE0, 0x00, 0x00, 0x07, 0x60, 0x0F,
   0xE0, 0x01, 0x7C, 0x00, 0x00, 0x80, 0x00, 0x1B, 0x70, 0x00, 0xE0,
   0x00, 0x00, 0x07, 0x60, 0x0F, 0xE0, 0x01, 0x7C, 0x00, 0x00, 0x80,
   0x00, 0x71, 0x7C, 0x00, 0xA0, 0x01, 0x80, 0x03, 0x30, 0xFF, 0x3F,
   0x00, 0xF0, 0x00, 0x00, 0xF0, 0x00, 0x71, 0x7C, 0x00, 0xA0, 0x01,
   0x80, 0x03, 0x30, 0xFF, 0x3F, 0x00, 0xF0, 0x00, 0x00, 0xF0, 0x80,
   0xC1, 0xC7, 0x01, 0x30, 0x01, 0x80, 0x03, 0xF0, 0xE1, 0x0C, 0x00,
   0xC0, 0x00, 0x00, 0x3E, 0x80, 0xF0, 0x03, 0x07, 0xFF, 0x01, 0xE0,
   0x01, 0x70, 0x80, 0x0C, 0x00, 0x80, 0x01, 0x80, 0x37, 0x80, 0xF0,
   0x03, 0x07, 0xFF, 0x01, 0xE0, 0x01, 0x70, 0x80, 0x0C, 0x00, 0x80,
   0x01, 0x80, 0x37, 0x80, 0xDF, 0x7F, 0xDE, 0xC7, 0x03, 0x78, 0x01,
   0x38, 0x80, 0x07, 0x00, 0x80, 0xFF, 0xFF, 0x91, 0x80, 0xDF, 0x7F,
   0xDE, 0xC7, 0x03, 0x78, 0x01, 0x38, 0x80, 0x07, 0x00, 0x80, 0xFF,
   0xFF, 0x91, 0xC0, 0x01, 0xC0, 0x70, 0x00, 0x0F, 0xDF, 0x03, 0x18,
   0x00, 0x07, 0x00, 0x00, 0x81, 0x1F, 0x1B, 0xC0, 0x01, 0xC0, 0x70,
   0x00, 0x0F, 0xDF, 0x03, 0x18, 0x00, 0x07, 0x00, 0x00, 0x81, 0x1F,
   0x1B, 0xE0, 0x00, 0x80, 0x31, 0x00, 0xF9, 0x87, 0x07, 0x0C, 0x00,
   0x07, 0x00, 0x00, 0xC1, 0x07, 0x1E, 0x30, 0x00, 0x00, 0x1B, 0x80,
   0x79, 0x00, 0x1C, 0x07, 0x00, 0x07, 0x00, 0x00, 0x73, 0x00, 0x9C,
   0x30, 0x00, 0x00, 0x1B, 0x80, 0x79, 0x00, 0x1C, 0x07, 0x00, 0x07,
   0x00, 0x00, 0x73, 0x00, 0x9C, 0x18, 0x00, 0x00, 0x0E, 0x80, 0x0F,
   0x00, 0xF0, 0x07, 0x00, 0x04, 0x00, 0x00, 0x13, 0x00, 0x18, 0x18,
   0x00, 0x00, 0x0E, 0x80, 0x0F, 0x00, 0xF0, 0x07, 0x00, 0x04, 0x00,
   0x00, 0x13, 0x00, 0x18, 0x0F, 0x00, 0x00, 0x0C, 0xC0, 0x01, 0x00,
   0xC0, 0x07, 0x00, 0x04, 0x00, 0x00, 0x1B, 0x00, 0x30, 0x07, 0x00,
   0x00, 0x08, 0xE0, 0x00, 0x00, 0xC0, 0x03, 0x00, 0x0C, 0x00, 0x00,
   0x0B, 0x00, 0x20, 0x07, 0x00, 0x00, 0x08, 0xE0, 0x00, 0x00, 0xC0,
   0x03, 0x00, 0x0C, 0x00, 0x00, 0x0B, 0x00, 0x20, 0x03, 0x00, 0x00,
   0x18, 0x70, 0x00, 0x00, 0xC0, 0x00, 0x00, 0x0C, 0x00, 0x80, 0x0D,
   0x00, 0x20, 0x03, 0x00, 0x00, 0x18, 0x70, 0x00, 0x00, 0xC0, 0x00,
   0x00, 0x0C, 0x00, 0x80, 0x0D, 0x00, 0x20, 0x03, 0x00, 0x00, 0x18,
   0x38, 0x00, 0x00, 0x80, 0x00, 0x00, 0x1C, 0x00, 0x80, 0x04, 0x00,
   0xE0, 0x03, 0x00, 0x00, 0x18, 0x38, 0x00, 0x00, 0x80, 0x00, 0x00,
   0x1C, 0x00, 0x80, 0x04, 0x00, 0xE0, 0x00, 0x00, 0x00, 0x70, 0x1C,
   0x00, 0x00, 0x80, 0x00, 0x00, 0x77, 0x00, 0xE0, 0x0D, 0x00, 0xC0,
   0x00, 0x00, 0x00, 0xF0, 0x0F, 0x00, 0x00, 0xC0, 0x00, 0x00, 0xE7,
   0x0F, 0x3C, 0x0F, 0x00, 0xC0, 0x00, 0x00, 0x00, 0xF0, 0x0F, 0x00,
   0x00, 0xC0, 0x00, 0x00, 0xE7, 0x0F, 0x3C, 0x0F, 0x00, 0xC0, 0x00,
   0x00, 0x00, 0xB0, 0x07, 0x00, 0x00, 0xC0, 0x00, 0x00, 0xF7, 0xFF,
   0x0F, 0x1C, 0x00, 0xC0, 0x00, 0x00, 0x00, 0xB0, 0x07, 0x00, 0x00,
   0xC0, 0x00, 0x00, 0xF7, 0xFF, 0x0F, 0x1C, 0x00, 0xC0, 0x00, 0x00,
   0x00, 0x20, 0x03, 0x00, 0x00, 0x40, 0x00, 0x00, 0x17, 0x9C, 0x00,
   0x18, 0x00, 0x80, 0x00, 0x00, 0x00, 0xB0, 0x03, 0x00, 0x00, 0x40,
   0x00, 0x00, 0x0F, 0xB0, 0x00, 0x10, 0x00, 0x80, 0x00, 0x00, 0x00,
   0xB0, 0x03, 0x00, 0x00, 0x40, 0x00, 0x00, 0x0F, 0xB0, 0x00, 0x10,
   0x00, 0x80, 0x00, 0x00, 0x00, 0x90, 0x00, 0x00, 0x00, 0x40, 0x00,
   0x80, 0x07, 0xA0, 0x00, 0x30, 0x00, 0xC0, 0x00, 0x00, 0x00, 0x90,
   0x00, 0x00, 0x00, 0x40, 0x00, 0x80, 0x07, 0xA0, 0x00, 0x30, 0x00,
   0xC0, 0x00, 0x00, 0x00, 0xD8, 0x00, 0x00, 0x00, 0x40, 0x00, 0x80,
   0x07, 0xE0, 0x00, 0x20, 0x00, 0xC0, 0x00, 0x00, 0x00, 0xCC, 0x00,
   0x00, 0x00, 0x60, 0x00, 0x80, 0x03, 0xE0, 0x00, 0x20, 0x00, 0xC0,
   0x00, 0x00, 0x00, 0xCC, 0x00, 0x00, 0x00, 0x60, 0x00, 0x80, 0x03,
   0xE0, 0x00, 0x20, 0x00, 0xC0, 0x03, 0x00, 0x80, 0x8F, 0x00, 0x00,
   0x00, 0xE0, 0x00, 0xC0, 0x00, 0xE0, 0x00, 0x60, 0x00, 0xC0, 0x03,
   0x00, 0x80, 0x8F, 0x00, 0x00, 0x00, 0xE0, 0x00, 0xC0, 0x00, 0xE0,
   0x00, 0x60, 0x00, 0xC0, 0x07, 0x00, 0xE0, 0x87, 0x03, 0x00, 0x00,
   0xB0, 0x00, 0xE0, 0x00, 0xB0, 0x00, 0x60, 0x00, 0xC0, 0x07, 0x00,
   0xE0, 0x87, 0x03, 0x00, 0x00, 0xB0, 0x00, 0xE0, 0x00, 0xB0, 0x00,
   0x60, 0x00, 0xC0, 0x1F, 0x00, 0x3C, 0xBC, 0x03, 0x00, 0x00, 0xB0,
   0x00, 0xF0, 0x00, 0x98, 0x00, 0xE0, 0x00, 0xC0, 0xF8, 0xED, 0x07,
   0xF0, 0x03, 0x00, 0x00, 0xBC, 0x03, 0x98, 0x03, 0xFE, 0x00, 0xF0,
   0x00, 0xE0, 0xF8, 0xED, 0x07, 0xF0, 0x03, 0x00, 0x00, 0xBC, 0x03,
   0x98, 0x03, 0xFE, 0x00, 0xF0, 0x00, 0xE0, 0xFF, 0xFF, 0x00, 0xC0,
   0x07, 0x00, 0x80, 0x77, 0x03, 0x3C, 0x8F, 0xF7, 0x03, 0xF8, 0x07,
   0xE0, 0xFF, 0xFF, 0x00, 0xC0, 0x07, 0x00, 0x80, 0x77, 0x03, 0x3C,
   0x8F, 0xF7, 0x03, 0xF8, 0x07, 0xE0, 0x07, 0x37, 0x00, 0x00, 0x07,
   0x00, 0xF8, 0xE1, 0x0F, 0xFE, 0xF8, 0xC0, 0x07, 0x1E, 0x3C, 0xE0,
   0x03, 0x1C, 0x00, 0x00, 0xFC, 0x01, 0xBF, 0x81, 0xBF, 0xC7, 0x33,
   0x00, 0xDF, 0x07, 0x70, 0xF8, 0x03, 0x1C, 0x00, 0x00, 0xFC, 0x01,
   0xBF, 0x81, 0xBF, 0xC7, 0x33, 0x00, 0xDF, 0x07, 0x70, 0xF8, 0x00,
   0x1C, 0x00, 0x00, 0xFC, 0xFF, 0x9F, 0x01, 0xE7, 0x00, 0x17, 0x00,
   0xF8, 0x03, 0xE0, 0x1F, 0x00, 0x1C, 0x00, 0x00, 0xFC, 0xFF, 0x9F,
   0x01, 0xE7, 0x00, 0x17, 0x00, 0xF8, 0x03, 0xE0, 0x1F, 0x00, 0x08,
   0x00, 0x00, 0x08, 0x7C, 0xF8, 0x00, 0x2C, 0x00, 0x1C, 0x00, 0xB0,
   0x01, 0x60, 0x0F, 0x00, 0x08, 0x00, 0x00, 0x08, 0x7C, 0xF8, 0x00,
   0x2C, 0x00, 0x1C, 0x00, 0xB0, 0x01, 0x60, 0x0F, 0x00, 0x08, 0x00,
   0x00, 0x18, 0x0F, 0xF0, 0x00, 0x38, 0x00, 0x0C, 0x00, 0xE0, 0x00,
   0x60, 0x86, 0x00, 0x18, 0x00, 0x00, 0x98, 0x01, 0xE0, 0x01, 0x18,
   0x00, 0x0C, 0x00, 0xC0, 0x00, 0x60, 0x03, 0x00, 0x18, 0x00, 0x00,
   0x98, 0x01, 0xE0, 0x01, 0x18, 0x00, 0x0C, 0x00, 0xC0, 0x00, 0x60,
   0x03, 0x00, 0x10, 0x00, 0x00, 0x98, 0x00, 0x80, 0x01, 0x18, 0x00,
   0x0C, 0x00, 0xC0, 0x00, 0xE0, 0x01, 0x00, 0x10, 0x00, 0x00, 0x98,
   0x00, 0x80, 0x01, 0x18, 0x00, 0x0C, 0x00, 0xC0, 0x00, 0xE0, 0x01,
   0x00, 0x30, 0x00, 0x00, 0xD8, 0x00, 0x00, 0x01, 0x18, 0x00, 0x0F,
   0x00, 0x80, 0x00, 0xE0, 0x00, 0x00, 0x30, 0x00, 0x00, 0x48, 0x00,
   0x00, 0x03, 0x38, 0x00, 0x0F, 0x00, 0x80, 0x00, 0xE0, 0x80, 0x00,
   0x30, 0x00, 0x00, 0x48, 0x00, 0x00, 0x03, 0x38, 0x00, 0x0F, 0x00,
   0x80, 0x00, 0xE0, 0x80, 0x00, 0x30, 0x00, 0x00, 0x6C, 0x00, 0x00,
   0x03, 0x3C, 0x80, 0x0F, 0x00, 0x80, 0x01, 0x60, 0x00, 0x00, 0x30,
   0x00, 0x00, 0x6C, 0x00, 0x00, 0x03, 0x3C, 0x80, 0x0F, 0x00, 0x80,
   0x01, 0x60, 0x00, 0x00, 0xF8, 0x00, 0x00, 0x6F, 0x00, 0x00, 0x06,
   0xFC, 0xFF, 0x04, 0x00, 0x00, 0x01, 0x60, 0x00, 0x00, 0xF8, 0x00,
   0x00, 0x6F, 0x00, 0x00, 0x06, 0xFC, 0xFF, 0x04, 0x00, 0x00, 0x01,
   0x60, 0x00
   };
